<svg xmlns="http://www.w3.org/2000/svg" width="525" viewBox="0 0 525 525" height="525" version="1.0"><path fill="#CADDFF" d="M 374.421875 430.210938 C 484.472656 361.445312 485.953125 237.851562 485.917969 232.1875 C 485.527344 170.257812 457.09375 80.796875 380.253906 46.527344 C 343.835938 30.285156 286.269531 21.875 245.226562 49.230469 C 206.902344 74.769531 223.511719 104.488281 181.230469 155.496094 C 132.535156 214.242188 93.371094 206.308594 60.71875 257.613281 C 39.15625 291.503906 48.667969 332.519531 51.398438 344.28125 C 71.402344 430.53125 176.394531 460.179688 188.171875 463.3125 C 281.652344 488.175781 358.597656 440.097656 374.421875 430.210938"/><path d="M 419.222656 90.882812 C 419.210938 90.882812 419.195312 90.882812 419.1875 90.882812 L 416.367188 90.746094 C 415.929688 90.726562 415.585938 90.351562 415.609375 89.910156 C 415.632812 89.472656 415.988281 89.140625 416.445312 89.15625 L 419.261719 89.292969 C 419.703125 89.316406 420.039062 89.6875 420.019531 90.125 C 419.996094 90.554688 419.644531 90.882812 419.222656 90.882812"/><path d="M 409.363281 90.398438 C 409.351562 90.398438 409.335938 90.398438 409.324219 90.398438 L 406.507812 90.261719 C 406.066406 90.238281 405.730469 89.863281 405.75 89.425781 C 405.773438 88.988281 406.144531 88.648438 406.585938 88.667969 L 409.402344 88.808594 C 409.84375 88.828125 410.179688 89.203125 410.160156 89.640625 C 410.136719 90.066406 409.785156 90.398438 409.363281 90.398438"/><path d="M 413.097656 87.105469 C 413.082031 87.105469 413.066406 87.105469 413.046875 87.105469 C 412.605469 87.078125 412.273438 86.699219 412.300781 86.261719 L 412.46875 83.488281 C 412.5 83.046875 412.886719 82.714844 413.3125 82.742188 C 413.75 82.765625 414.085938 83.144531 414.058594 83.582031 L 413.890625 86.359375 C 413.863281 86.78125 413.515625 87.105469 413.097656 87.105469"/><path d="M 412.507812 96.8125 C 412.488281 96.8125 412.472656 96.8125 412.457031 96.8125 C 412.019531 96.785156 411.6875 96.40625 411.710938 95.96875 L 411.878906 93.195312 C 411.90625 92.757812 412.289062 92.425781 412.722656 92.449219 C 413.160156 92.476562 413.496094 92.851562 413.46875 93.292969 L 413.300781 96.066406 C 413.273438 96.488281 412.925781 96.8125 412.507812 96.8125"/><path d="M 425.28125 102.460938 L 425.289062 102.460938 Z M 426.636719 103.027344 C 426.273438 103.027344 425.90625 103.085938 425.546875 103.214844 C 424.699219 103.503906 424.019531 104.109375 423.628906 104.914062 C 423.238281 105.714844 423.183594 106.625 423.476562 107.46875 C 423.769531 108.316406 424.375 108.992188 425.175781 109.382812 C 425.984375 109.777344 426.890625 109.832031 427.734375 109.535156 C 429.480469 108.933594 430.40625 107.023438 429.800781 105.28125 C 429.320312 103.898438 428.023438 103.027344 426.636719 103.027344 Z M 426.636719 111.316406 C 425.898438 111.316406 425.164062 111.148438 424.484375 110.816406 C 423.296875 110.242188 422.40625 109.234375 421.972656 107.988281 C 421.539062 106.742188 421.621094 105.40625 422.199219 104.214844 C 422.773438 103.03125 423.777344 102.140625 425.023438 101.710938 C 427.601562 100.816406 430.414062 102.1875 431.304688 104.757812 C 432.199219 107.332031 430.828125 110.148438 428.253906 111.042969 C 427.726562 111.222656 427.179688 111.316406 426.636719 111.316406"/><path fill="#CADDFF" d="M 114.074219 100.824219 C 107.226562 100.824219 101.675781 95.273438 101.675781 88.429688 C 101.675781 81.585938 107.226562 76.035156 114.074219 76.035156 C 120.917969 76.035156 126.46875 81.585938 126.46875 88.429688 C 126.46875 95.273438 120.917969 100.824219 114.074219 100.824219 Z M 137.917969 83.183594 C 137.878906 82.890625 137.640625 82.671875 137.347656 82.644531 L 133.128906 82.300781 C 132.882812 82.28125 132.675781 82.117188 132.59375 81.882812 C 132.320312 81.101562 132 80.335938 131.632812 79.605469 C 131.523438 79.386719 131.546875 79.125 131.703125 78.933594 L 134.378906 75.65625 C 134.5625 75.429688 134.566406 75.105469 134.386719 74.875 L 132.101562 71.957031 C 131.921875 71.726562 131.605469 71.652344 131.34375 71.777344 L 127.515625 73.589844 C 127.289062 73.695312 127.03125 73.660156 126.84375 73.496094 C 126.21875 72.960938 125.558594 72.46875 124.871094 72.011719 C 124.667969 71.878906 124.554688 71.636719 124.597656 71.394531 L 125.277344 67.207031 C 125.324219 66.921875 125.164062 66.636719 124.894531 66.53125 L 121.457031 65.144531 C 121.183594 65.035156 120.875 65.128906 120.707031 65.371094 L 118.300781 68.847656 C 118.164062 69.050781 117.917969 69.148438 117.675781 69.101562 C 116.871094 68.957031 116.050781 68.855469 115.222656 68.808594 C 114.976562 68.796875 114.761719 68.640625 114.671875 68.410156 L 113.171875 64.453125 C 113.070312 64.175781 112.789062 64.011719 112.5 64.054688 L 108.828125 64.570312 C 108.539062 64.613281 108.320312 64.847656 108.296875 65.140625 L 107.949219 69.363281 C 107.929688 69.609375 107.765625 69.816406 107.53125 69.898438 C 106.75 70.171875 105.988281 70.496094 105.257812 70.863281 C 105.039062 70.972656 104.773438 70.949219 104.585938 70.792969 L 101.308594 68.113281 C 101.082031 67.929688 100.757812 67.925781 100.527344 68.105469 L 97.609375 70.394531 C 97.378906 70.574219 97.304688 70.886719 97.429688 71.152344 L 99.242188 74.984375 C 99.347656 75.207031 99.308594 75.46875 99.148438 75.65625 C 98.613281 76.28125 98.117188 76.9375 97.667969 77.628906 C 97.53125 77.832031 97.289062 77.945312 97.046875 77.90625 L 92.867188 77.222656 C 92.578125 77.179688 92.296875 77.335938 92.183594 77.609375 L 90.800781 81.050781 C 90.691406 81.316406 90.785156 81.628906 91.023438 81.796875 L 94.503906 84.203125 C 94.707031 84.34375 94.800781 84.585938 94.757812 84.828125 C 94.609375 85.632812 94.511719 86.453125 94.464844 87.28125 C 94.449219 87.53125 94.296875 87.746094 94.066406 87.832031 L 90.105469 89.332031 C 89.832031 89.4375 89.667969 89.71875 89.707031 90.007812 L 90.226562 93.679688 C 90.265625 93.972656 90.503906 94.191406 90.792969 94.214844 L 95.015625 94.558594 C 95.261719 94.582031 95.46875 94.746094 95.550781 94.976562 C 95.824219 95.761719 96.148438 96.523438 96.511719 97.253906 C 96.625 97.472656 96.597656 97.734375 96.441406 97.925781 L 93.765625 101.203125 C 93.582031 101.429688 93.578125 101.757812 93.757812 101.984375 L 96.042969 104.90625 C 96.222656 105.136719 96.539062 105.210938 96.804688 105.085938 L 100.632812 103.269531 C 100.855469 103.164062 101.117188 103.203125 101.304688 103.367188 C 101.929688 103.898438 102.585938 104.394531 103.273438 104.847656 C 103.480469 104.984375 103.589844 105.222656 103.550781 105.464844 L 102.871094 109.648438 C 102.820312 109.941406 102.980469 110.222656 103.253906 110.332031 L 106.6875 111.71875 C 106.960938 111.828125 107.273438 111.730469 107.4375 111.492188 L 109.84375 108.011719 C 109.984375 107.808594 110.226562 107.710938 110.46875 107.757812 C 111.273438 107.90625 112.09375 108.003906 112.921875 108.050781 C 113.167969 108.0625 113.386719 108.21875 113.472656 108.449219 L 114.972656 112.410156 C 115.078125 112.683594 115.355469 112.851562 115.644531 112.808594 L 119.316406 112.289062 C 119.605469 112.246094 119.828125 112.011719 119.851562 111.71875 L 120.195312 107.496094 C 120.214844 107.25 120.378906 107.042969 120.613281 106.960938 C 121.398438 106.6875 122.15625 106.363281 122.886719 105.996094 C 123.109375 105.886719 123.371094 105.914062 123.5625 106.070312 L 126.835938 108.742188 C 127.0625 108.929688 127.386719 108.933594 127.617188 108.753906 L 130.535156 106.46875 C 130.765625 106.289062 130.839844 105.972656 130.714844 105.707031 L 128.902344 101.875 C 128.796875 101.652344 128.835938 101.390625 128.996094 101.207031 C 129.53125 100.578125 130.027344 99.921875 130.480469 99.230469 C 130.613281 99.023438 130.855469 98.917969 131.097656 98.957031 L 135.277344 99.636719 C 135.566406 99.683594 135.851562 99.523438 135.960938 99.253906 L 137.34375 95.8125 C 137.453125 95.539062 137.363281 95.230469 137.121094 95.066406 L 133.644531 92.65625 C 133.441406 92.519531 133.34375 92.273438 133.386719 92.03125 C 133.535156 91.226562 133.632812 90.40625 133.683594 89.578125 C 133.695312 89.332031 133.847656 89.117188 134.082031 89.027344 L 138.039062 87.523438 C 138.3125 87.417969 138.476562 87.140625 138.4375 86.851562 L 137.917969 83.183594"/><path fill="#5479F7" d="M 114.074219 76.832031 C 107.675781 76.832031 102.472656 82.035156 102.472656 88.433594 C 102.472656 94.828125 107.675781 100.03125 114.074219 100.03125 C 120.46875 100.03125 125.671875 94.828125 125.671875 88.433594 C 125.671875 82.035156 120.46875 76.832031 114.074219 76.832031 Z M 114.074219 101.621094 C 106.796875 101.621094 100.878906 95.703125 100.878906 88.433594 C 100.878906 81.15625 106.796875 75.238281 114.074219 75.238281 C 121.347656 75.238281 127.265625 81.15625 127.265625 88.433594 C 127.265625 95.703125 121.347656 101.621094 114.074219 101.621094 Z M 137.128906 83.292969 Z M 110.355469 106.953125 C 110.441406 106.953125 110.527344 106.957031 110.613281 106.972656 C 111.378906 107.117188 112.171875 107.210938 112.96875 107.257812 C 113.53125 107.289062 114.019531 107.648438 114.21875 108.171875 L 115.667969 112 L 119.070312 111.519531 L 119.402344 107.433594 C 119.445312 106.875 119.820312 106.398438 120.347656 106.210938 C 121.101562 105.949219 121.835938 105.636719 122.53125 105.289062 C 123.03125 105.039062 123.632812 105.101562 124.066406 105.453125 L 127.234375 108.042969 L 129.9375 105.925781 L 128.183594 102.21875 C 127.945312 101.714844 128.027344 101.117188 128.390625 100.691406 C 128.898438 100.09375 129.378906 99.457031 129.8125 98.796875 C 130.121094 98.328125 130.671875 98.082031 131.226562 98.171875 L 135.269531 98.828125 L 136.554688 95.644531 L 133.191406 93.316406 C 132.734375 93 132.503906 92.4375 132.605469 91.890625 C 132.746094 91.125 132.839844 90.335938 132.886719 89.535156 C 132.917969 88.972656 133.277344 88.484375 133.796875 88.285156 L 137.628906 86.828125 L 137.148438 83.429688 L 133.066406 83.09375 C 132.507812 83.050781 132.03125 82.679688 131.84375 82.148438 C 131.582031 81.398438 131.269531 80.664062 130.917969 79.964844 C 130.667969 79.464844 130.734375 78.863281 131.085938 78.429688 L 133.675781 75.261719 L 131.558594 72.554688 L 127.855469 74.308594 C 127.351562 74.546875 126.75 74.464844 126.324219 74.105469 C 125.726562 73.589844 125.09375 73.113281 124.433594 72.679688 C 123.964844 72.371094 123.71875 71.816406 123.808594 71.265625 L 124.46875 67.21875 L 121.285156 65.933594 L 118.957031 69.300781 C 118.640625 69.761719 118.078125 69.984375 117.53125 69.886719 C 116.765625 69.746094 115.972656 69.652344 115.179688 69.605469 C 114.617188 69.574219 114.125 69.21875 113.929688 68.695312 L 112.476562 64.859375 L 109.078125 65.34375 L 108.742188 69.429688 C 108.699219 69.988281 108.328125 70.464844 107.796875 70.652344 C 107.046875 70.914062 106.3125 71.222656 105.613281 71.574219 C 105.113281 71.828125 104.511719 71.761719 104.082031 71.40625 L 100.910156 68.820312 L 98.207031 70.9375 L 99.960938 74.644531 C 100.199219 75.148438 100.117188 75.75 99.753906 76.175781 C 99.242188 76.773438 98.765625 77.410156 98.332031 78.066406 C 98.023438 78.535156 97.472656 78.785156 96.917969 78.691406 L 92.875 78.03125 L 91.589844 81.21875 L 94.957031 83.546875 C 95.410156 83.867188 95.640625 84.421875 95.539062 84.976562 C 95.398438 85.742188 95.304688 86.53125 95.257812 87.328125 C 95.226562 87.890625 94.867188 88.382812 94.347656 88.578125 L 90.515625 90.03125 L 90.996094 93.433594 L 95.078125 93.769531 C 95.636719 93.8125 96.113281 94.183594 96.300781 94.714844 C 96.5625 95.464844 96.875 96.199219 97.226562 96.898438 C 97.476562 97.398438 97.410156 98.003906 97.058594 98.429688 L 94.46875 101.601562 L 96.585938 104.308594 L 100.289062 102.554688 C 100.792969 102.3125 101.394531 102.394531 101.820312 102.761719 C 102.421875 103.277344 103.058594 103.753906 103.710938 104.183594 C 104.179688 104.492188 104.425781 105.046875 104.335938 105.59375 L 103.675781 109.644531 L 106.859375 110.929688 L 109.1875 107.558594 C 109.453125 107.175781 109.894531 106.953125 110.355469 106.953125 Z M 115.554688 113.613281 C 114.96875 113.613281 114.441406 113.253906 114.226562 112.691406 L 112.769531 108.839844 C 111.980469 108.792969 111.195312 108.695312 110.433594 108.5625 L 108.09375 111.945312 C 107.710938 112.496094 107.011719 112.707031 106.390625 112.457031 L 102.953125 111.070312 C 102.332031 110.820312 101.976562 110.183594 102.082031 109.523438 L 102.746094 105.453125 C 102.097656 105.023438 101.46875 104.546875 100.867188 104.039062 L 97.144531 105.804688 C 96.539062 106.09375 95.828125 105.925781 95.414062 105.398438 L 93.132812 102.476562 C 92.71875 101.953125 92.726562 101.21875 93.148438 100.703125 L 95.753906 97.511719 C 95.40625 96.816406 95.101562 96.085938 94.835938 95.34375 L 90.730469 95.011719 C 90.0625 94.953125 89.53125 94.453125 89.4375 93.792969 L 88.917969 90.121094 C 88.824219 89.457031 89.199219 88.832031 89.824219 88.59375 L 93.675781 87.132812 C 93.722656 86.339844 93.816406 85.554688 93.957031 84.792969 L 90.570312 82.453125 C 90.019531 82.070312 89.8125 81.371094 90.0625 80.75 L 91.445312 77.3125 C 91.695312 76.691406 92.335938 76.328125 92.992188 76.4375 L 97.0625 77.101562 C 97.492188 76.449219 97.96875 75.820312 98.472656 75.222656 L 96.710938 71.496094 C 96.425781 70.890625 96.59375 70.179688 97.121094 69.769531 L 100.035156 67.484375 C 100.5625 67.070312 101.292969 67.078125 101.8125 67.5 L 105 70.105469 C 105.695312 69.761719 106.421875 69.453125 107.167969 69.183594 L 107.5 65.074219 C 107.554688 64.410156 108.054688 63.878906 108.71875 63.785156 L 112.386719 63.265625 C 113.054688 63.175781 113.679688 63.542969 113.914062 64.167969 L 115.375 68.019531 C 116.164062 68.074219 116.949219 68.164062 117.710938 68.304688 L 120.050781 64.917969 C 120.433594 64.367188 121.132812 64.15625 121.753906 64.40625 L 125.191406 65.792969 C 125.808594 66.042969 126.167969 66.675781 126.0625 67.339844 L 125.398438 71.410156 C 126.050781 71.84375 126.683594 72.320312 127.277344 72.820312 L 131 71.054688 C 131.605469 70.769531 132.316406 70.941406 132.730469 71.464844 L 135.015625 74.386719 C 135.425781 74.914062 135.417969 75.644531 134.996094 76.164062 L 132.390625 79.351562 C 132.738281 80.046875 133.042969 80.777344 133.308594 81.515625 L 137.414062 81.851562 C 138.082031 81.90625 138.613281 82.40625 138.707031 83.070312 L 139.226562 86.742188 C 139.316406 87.40625 138.945312 88.035156 138.324219 88.269531 L 134.46875 89.734375 C 134.421875 90.523438 134.328125 91.3125 134.1875 92.070312 L 137.574219 94.414062 C 138.125 94.792969 138.332031 95.492188 138.082031 96.113281 L 136.699219 99.550781 C 136.445312 100.171875 135.808594 100.53125 135.152344 100.421875 L 131.082031 99.761719 C 130.648438 100.417969 130.171875 101.046875 129.671875 101.640625 L 131.433594 105.367188 C 131.722656 105.972656 131.554688 106.683594 131.027344 107.097656 L 128.109375 109.382812 C 127.582031 109.792969 126.851562 109.785156 126.332031 109.363281 L 123.144531 106.761719 C 122.453125 107.105469 121.722656 107.410156 120.976562 107.675781 L 120.644531 111.785156 C 120.589844 112.453125 120.085938 112.984375 119.425781 113.078125 L 115.757812 113.597656 C 115.6875 113.605469 115.621094 113.613281 115.554688 113.613281"/><path fill="#99B9FF" d="M 165.5 127.878906 L 474.949219 126.980469 C 481.175781 126.980469 486.058594 132.289062 485.507812 138.453125 L 463.847656 381.171875 C 463.363281 386.609375 458.78125 390.777344 453.292969 390.777344 L 72.113281 390.71875 C 65.890625 390.71875 60.945312 384.863281 61.496094 378.699219 L 83.160156 137.480469 C 83.644531 132.042969 88.050781 127.285156 93.539062 127.285156 L 165.5 127.878906"/><path fill="#99B9FF" d="M 150.746094 127.882812 L 460.148438 127.882812 C 466.371094 127.882812 471.253906 133.21875 470.703125 139.414062 L 449.140625 381.699219 C 448.65625 387.164062 444.074219 391.355469 438.585938 391.355469 L 57.398438 391.355469 C 51.175781 391.355469 46.292969 386.019531 46.84375 379.820312 L 68.402344 137.539062 C 68.890625 132.074219 73.472656 127.882812 78.960938 127.882812 L 150.746094 127.882812"/><path d="M 83.683594 392.164062 C 83.683594 392.164062 83.683594 392.164062 83.679688 392.164062 L 57.398438 392.152344 C 54.210938 392.152344 51.144531 390.800781 48.992188 388.449219 C 46.839844 386.097656 45.769531 382.925781 46.050781 379.75 L 67.609375 137.46875 C 68.136719 131.550781 73.015625 127.085938 78.960938 127.085938 L 139.742188 127.4375 C 140.183594 127.441406 140.539062 127.800781 140.535156 128.238281 C 140.53125 128.679688 140.175781 129.03125 139.738281 129.03125 C 139.738281 129.03125 139.734375 129.03125 139.734375 129.03125 L 78.957031 128.675781 C 73.847656 128.675781 69.652344 132.515625 69.195312 137.609375 L 47.636719 379.894531 C 47.394531 382.625 48.316406 385.351562 50.167969 387.375 C 52.019531 389.398438 54.65625 390.558594 57.398438 390.558594 L 83.683594 390.570312 C 84.121094 390.570312 84.476562 390.925781 84.476562 391.367188 C 84.476562 391.808594 84.121094 392.164062 83.683594 392.164062"/><path d="M 458.214844 282.9375 C 458.195312 282.9375 458.167969 282.9375 458.144531 282.933594 C 457.707031 282.898438 457.382812 282.511719 457.421875 282.074219 L 469.90625 139.347656 C 470.152344 136.613281 469.226562 133.886719 467.375 131.859375 C 465.527344 129.839844 462.890625 128.675781 460.144531 128.675781 L 402.472656 127.96875 C 402.035156 127.964844 401.679688 127.601562 401.6875 127.164062 C 401.691406 126.726562 402.046875 126.378906 402.480469 126.378906 C 402.484375 126.378906 402.488281 126.378906 402.488281 126.378906 L 460.15625 127.085938 C 463.335938 127.085938 466.398438 128.433594 468.550781 130.789062 C 470.703125 133.136719 471.777344 136.3125 471.496094 139.484375 L 459.007812 282.210938 C 458.972656 282.625 458.621094 282.9375 458.214844 282.9375"/><path fill="#CADDFF" d="M 157.625 137.75 L 449.75 137.75 C 455.628906 137.75 460.238281 142.675781 459.714844 148.398438 L 439.359375 372.027344 C 438.898438 377.070312 434.578125 380.941406 429.394531 380.941406 L 69.492188 380.941406 C 63.617188 380.941406 59.003906 376.015625 59.527344 370.292969 L 79.882812 146.664062 C 80.34375 141.621094 84.667969 137.75 89.847656 137.75 L 157.625 137.75"/><path fill="#5479F7" d="M 458.375 163.3125 L 459.714844 148.503906 C 460.238281 142.785156 455.628906 137.824219 449.75 137.824219 L 89.847656 137.824219 C 84.667969 137.824219 80.34375 141.726562 79.882812 146.769531 L 78.378906 163.3125 L 458.375 163.3125"/><path d="M 164.890625 392.695312 C 164.457031 392.695312 164.097656 392.339844 164.097656 391.90625 C 164.09375 391.464844 164.445312 391.105469 164.886719 391.101562 L 237.074219 390.570312 C 237.078125 390.570312 237.078125 390.570312 237.082031 390.570312 C 237.519531 390.570312 237.875 390.925781 237.878906 391.363281 C 237.878906 391.800781 237.527344 392.160156 237.085938 392.164062 L 164.898438 392.695312 C 164.894531 392.695312 164.894531 392.695312 164.890625 392.695312"/><path fill="#99B9FF" d="M 392.121094 270.601562 C 382.433594 273.253906 372.433594 267.550781 369.777344 257.863281 C 367.125 248.175781 372.832031 238.171875 382.515625 235.519531 C 392.203125 232.867188 402.210938 238.574219 404.863281 248.257812 C 407.515625 257.945312 401.808594 267.945312 392.121094 270.601562 Z M 423.503906 246.816406 L 421.640625 240.003906 L 413.929688 240.351562 C 413.21875 238.851562 412.386719 237.429688 411.453125 236.101562 L 415.535156 229.5625 L 410.515625 224.59375 L 404.011719 228.75 C 402.65625 227.824219 401.226562 227.011719 399.738281 226.320312 L 400.003906 218.605469 L 393.167969 216.8125 L 389.621094 223.652344 C 388.003906 223.53125 386.355469 223.542969 384.703125 223.691406 L 381.074219 216.882812 L 374.261719 218.742188 L 374.609375 226.453125 C 373.109375 227.167969 371.6875 227.996094 370.359375 228.929688 L 363.820312 224.847656 L 358.851562 229.871094 L 363.011719 236.371094 C 362.082031 237.726562 361.269531 239.15625 360.574219 240.644531 L 352.859375 240.375 L 351.070312 247.210938 L 357.914062 250.757812 C 357.785156 252.378906 357.796875 254.027344 357.945312 255.679688 L 351.136719 259.304688 L 353 266.121094 L 360.710938 265.769531 C 361.421875 267.265625 362.253906 268.691406 363.1875 270.019531 L 359.105469 276.558594 L 364.128906 281.523438 L 370.632812 277.367188 C 371.984375 278.296875 373.414062 279.109375 374.90625 279.800781 L 374.636719 287.515625 L 381.472656 289.304688 L 385.015625 282.464844 C 386.636719 282.589844 388.285156 282.578125 389.941406 282.425781 L 393.566406 289.238281 L 400.378906 287.375 L 400.027344 279.664062 C 401.53125 278.953125 402.953125 278.125 404.28125 277.1875 L 410.824219 281.269531 L 415.792969 276.246094 L 411.632812 269.746094 C 412.558594 268.390625 413.371094 266.964844 414.066406 265.472656 L 421.777344 265.742188 L 423.570312 258.90625 L 416.726562 255.363281 C 416.855469 253.742188 416.84375 252.097656 416.695312 250.441406 L 423.503906 246.816406"/><path fill="#5479F7" d="M 391.914062 269.832031 L 392.121094 270.597656 L 391.914062 269.832031 C 401.164062 267.296875 406.628906 257.714844 404.09375 248.46875 C 401.5625 239.21875 391.976562 233.757812 382.726562 236.289062 C 378.246094 237.515625 374.511719 240.414062 372.210938 244.445312 C 369.910156 248.484375 369.320312 253.171875 370.542969 257.652344 C 373.082031 266.902344 382.664062 272.363281 391.914062 269.832031 Z M 387.324219 272.042969 C 378.984375 272.042969 371.316406 266.496094 369.007812 258.070312 C 367.671875 253.179688 368.316406 248.0625 370.828125 243.65625 C 373.339844 239.253906 377.414062 236.09375 382.308594 234.753906 C 387.199219 233.414062 392.320312 234.058594 396.722656 236.570312 C 401.125 239.082031 404.289062 243.15625 405.628906 248.046875 C 408.398438 258.140625 402.429688 268.601562 392.335938 271.367188 C 390.660156 271.824219 388.980469 272.042969 387.324219 272.042969 Z M 375.453125 286.90625 L 381.058594 288.375 L 384.554688 281.628906 L 385.078125 281.671875 C 386.644531 281.792969 388.257812 281.78125 389.867188 281.632812 L 390.394531 281.589844 L 393.96875 288.304688 L 399.554688 286.777344 L 399.210938 279.171875 L 399.6875 278.949219 C 401.144531 278.253906 402.539062 277.445312 403.824219 276.539062 L 404.253906 276.234375 L 410.703125 280.257812 L 414.777344 276.140625 L 410.675781 269.730469 L 410.972656 269.296875 C 411.875 267.984375 412.671875 266.585938 413.34375 265.136719 L 413.566406 264.664062 L 421.171875 264.925781 L 422.640625 259.324219 L 415.894531 255.824219 L 415.933594 255.300781 C 416.058594 253.734375 416.046875 252.125 415.898438 250.511719 L 415.851562 249.988281 L 422.570312 246.410156 L 421.039062 240.828125 L 413.4375 241.171875 L 413.210938 240.695312 C 412.515625 239.234375 411.707031 237.84375 410.800781 236.558594 L 410.496094 236.125 L 414.523438 229.679688 L 410.402344 225.609375 L 403.992188 229.707031 L 403.558594 229.410156 C 402.246094 228.507812 400.847656 227.710938 399.402344 227.039062 L 398.921875 226.820312 L 399.1875 219.214844 L 393.582031 217.746094 L 390.089844 224.492188 L 389.5625 224.449219 C 387.992188 224.324219 386.378906 224.339844 384.773438 224.484375 L 384.246094 224.53125 L 380.671875 217.816406 L 375.085938 219.34375 L 375.429688 226.945312 L 374.953125 227.171875 C 373.492188 227.867188 372.097656 228.679688 370.8125 229.582031 L 370.382812 229.886719 L 363.9375 225.859375 L 359.863281 229.980469 L 363.964844 236.390625 L 363.664062 236.824219 C 362.765625 238.140625 361.96875 239.539062 361.296875 240.980469 L 361.074219 241.460938 L 353.46875 241.195312 L 352.003906 246.796875 L 358.75 250.292969 L 358.707031 250.820312 C 358.585938 252.386719 358.59375 253.996094 358.738281 255.605469 L 358.789062 256.132812 L 352.070312 259.707031 L 353.601562 265.292969 L 361.203125 264.949219 L 361.429688 265.425781 C 362.125 266.882812 362.933594 268.277344 363.839844 269.5625 L 364.144531 269.996094 L 360.121094 276.441406 L 364.238281 280.511719 L 370.644531 276.414062 L 371.082031 276.710938 C 372.398438 277.613281 373.796875 278.410156 375.238281 279.078125 L 375.714844 279.304688 Z M 381.886719 290.238281 L 373.820312 288.121094 L 374.089844 280.296875 C 372.890625 279.714844 371.734375 279.050781 370.621094 278.316406 L 364.023438 282.539062 L 358.09375 276.675781 L 362.234375 270.042969 C 361.496094 268.949219 360.824219 267.792969 360.222656 266.585938 L 352.398438 266.945312 L 350.203125 258.902344 L 357.113281 255.222656 C 357.011719 253.878906 357.003906 252.539062 357.082031 251.226562 L 350.140625 247.625 L 352.25 239.5625 L 360.082031 239.828125 C 360.660156 238.636719 361.324219 237.472656 362.058594 236.363281 L 357.835938 229.765625 L 363.699219 223.835938 L 370.335938 227.976562 C 371.425781 227.242188 372.585938 226.566406 373.792969 225.96875 L 373.4375 218.148438 L 381.476562 215.945312 L 385.15625 222.855469 C 386.5 222.757812 387.839844 222.746094 389.15625 222.824219 L 392.753906 215.882812 L 400.820312 217.996094 L 400.554688 225.824219 C 401.746094 226.40625 402.910156 227.066406 404.023438 227.800781 L 410.617188 223.582031 L 416.546875 229.441406 L 412.40625 236.078125 C 413.140625 237.167969 413.816406 238.328125 414.414062 239.53125 L 422.238281 239.179688 L 424.441406 247.222656 L 417.527344 250.898438 C 417.625 252.238281 417.636719 253.582031 417.558594 254.894531 L 424.503906 258.492188 L 422.390625 266.558594 L 414.558594 266.289062 C 413.976562 267.488281 413.316406 268.648438 412.582031 269.757812 L 416.804688 276.355469 L 410.941406 282.285156 L 404.304688 278.140625 C 403.210938 278.878906 402.054688 279.554688 400.847656 280.152344 L 401.203125 287.972656 L 393.160156 290.171875 L 389.480469 283.261719 C 388.140625 283.363281 386.800781 283.371094 385.484375 283.296875 L 381.886719 290.238281"/><path fill="#FFF" d="M 127.992188 372.578125 L 152.789062 64.152344 C 153.101562 60.175781 156.464844 57.078125 160.46875 57.078125 L 393.144531 57.078125 C 397.527344 57.078125 400.941406 60.761719 400.597656 65.113281 L 376.332031 371.871094 L 127.992188 372.578125"/><path d="M 127.558594 371.503906 C 127.535156 371.503906 127.511719 371.503906 127.492188 371.5 C 127.054688 371.464844 126.726562 371.078125 126.761719 370.640625 L 151.996094 64.089844 C 152.339844 59.714844 156.0625 56.28125 160.46875 56.28125 L 393.144531 56.28125 C 395.492188 56.28125 397.65625 57.226562 399.234375 58.933594 C 400.808594 60.636719 401.574219 62.855469 401.390625 65.179688 L 390.003906 205.785156 C 389.96875 206.222656 389.582031 206.546875 389.144531 206.511719 C 388.707031 206.476562 388.382812 206.09375 388.414062 205.65625 L 399.804688 65.050781 C 399.953125 63.179688 399.332031 61.386719 398.0625 60.015625 C 396.792969 58.636719 395.042969 57.875 393.144531 57.875 L 160.46875 57.875 C 156.886719 57.875 153.863281 60.660156 153.582031 64.214844 L 128.351562 370.773438 C 128.316406 371.1875 127.96875 371.503906 127.558594 371.503906"/><path fill="#99B9FF" d="M 152.933594 307.832031 L 361.199219 309.347656 L 366.828125 207.90625 L 161.046875 208.644531 Z M 361.953125 310.945312 C 361.949219 310.945312 361.945312 310.945312 361.945312 310.945312 L 152.0625 309.417969 C 151.84375 309.417969 151.632812 309.324219 151.480469 309.160156 C 151.332031 308.996094 151.257812 308.777344 151.277344 308.554688 L 159.515625 207.789062 C 159.550781 207.375 159.894531 207.058594 160.308594 207.054688 L 367.667969 206.308594 C 367.886719 206.308594 368.097656 206.402344 368.25 206.558594 C 368.398438 206.71875 368.476562 206.933594 368.464844 207.152344 L 362.746094 310.195312 C 362.722656 310.617188 362.375 310.945312 361.953125 310.945312"/><path fill="#99B9FF" d="M 366.402344 220.972656 L 159.367188 220.816406 C 158.929688 220.816406 158.570312 220.460938 158.574219 220.023438 C 158.574219 219.582031 158.929688 219.222656 159.367188 219.222656 L 366.40625 219.382812 C 366.84375 219.382812 367.199219 219.738281 367.199219 220.179688 C 367.199219 220.617188 366.839844 220.972656 366.402344 220.972656"/><path fill="#CADDFF" d="M 299.960938 263.421875 L 164.394531 262.433594 L 165.402344 250.636719 L 300.96875 251.625 L 299.960938 263.421875"/><path fill="#CADDFF" d="M 301.113281 245.488281 L 165.546875 244.496094 L 166.554688 232.703125 L 302.121094 233.6875 L 301.113281 245.488281"/><path fill="#CADDFF" d="M 355.914062 245.886719 L 311 245.558594 L 312.011719 233.761719 L 356.921875 234.085938 L 355.914062 245.886719"/><path fill="#CADDFF" d="M 353.734375 264.285156 L 308.824219 263.957031 L 309.832031 252.160156 L 354.742188 252.488281 L 353.734375 264.285156"/><path fill="#CADDFF" d="M 298.445312 281.476562 L 162.878906 280.488281 L 163.890625 268.691406 L 299.457031 269.675781 L 298.445312 281.476562"/><path fill="#CADDFF" d="M 352.21875 282.335938 L 307.308594 282.011719 L 308.316406 270.214844 L 353.226562 270.542969 L 352.21875 282.335938"/><path fill="#CADDFF" d="M 296.347656 299.988281 L 160.78125 299.003906 L 161.789062 287.207031 L 297.355469 288.195312 L 296.347656 299.988281"/><path fill="#CADDFF" d="M 350.121094 300.855469 L 305.207031 300.527344 L 306.21875 288.730469 L 351.128906 289.054688 L 350.121094 300.855469"/><path fill="#CADDFF" d="M 346.976562 90.90625 L 197.082031 90.90625 C 195.046875 90.90625 193.347656 89.308594 193.527344 87.570312 L 194.097656 82.039062 C 194.238281 80.671875 195.507812 79.671875 197.105469 79.671875 L 346.996094 79.671875 C 349.035156 79.671875 350.730469 81.265625 350.550781 83.007812 L 349.984375 88.539062 C 349.84375 89.902344 348.574219 90.90625 346.976562 90.90625"/><path fill="#CADDFF" d="M 354.90625 108.328125 L 190.160156 108.328125 C 187.921875 108.328125 186.070312 106.738281 186.28125 104.996094 L 186.960938 99.464844 C 187.128906 98.097656 188.53125 97.097656 190.289062 97.097656 L 355.035156 97.097656 C 357.273438 97.097656 359.121094 98.691406 358.910156 100.433594 L 358.230469 105.964844 C 358.0625 107.332031 356.664062 108.328125 354.90625 108.328125"/><path fill="#CADDFF" d="M 360.660156 336.179688 C 360.59375 338.839844 359.160156 340.902344 357.382812 340.902344 L 266.246094 340.902344 C 264.277344 340.902344 262.664062 338.394531 262.734375 335.449219 C 262.804688 332.789062 264.238281 330.726562 266.015625 330.726562 L 357.152344 330.726562 C 359.125 330.726562 360.734375 333.234375 360.660156 336.179688"/><path fill="#5479F7" d="M 284.410156 177.808594 C 284.765625 178.683594 284.457031 179.632812 283.722656 179.929688 C 282.992188 180.226562 282.109375 179.757812 281.753906 178.882812 C 281.398438 178.007812 281.707031 177.0625 282.441406 176.761719 C 283.175781 176.464844 284.058594 176.933594 284.410156 177.808594"/><path fill="#FFF" d="M 283.5625 178.152344 C 283.691406 178.46875 283.578125 178.8125 283.316406 178.917969 C 283.046875 179.027344 282.730469 178.855469 282.605469 178.539062 C 282.476562 178.226562 282.585938 177.882812 282.851562 177.773438 C 283.117188 177.667969 283.433594 177.835938 283.5625 178.152344"/><path fill="#5479F7" d="M 290.480469 177.808594 C 290.832031 178.683594 290.527344 179.632812 289.792969 179.929688 C 289.058594 180.226562 288.175781 179.757812 287.824219 178.882812 C 287.46875 178.007812 287.777344 177.0625 288.511719 176.761719 C 289.242188 176.464844 290.125 176.933594 290.480469 177.808594"/><path fill="#FFF" d="M 289.628906 178.152344 C 289.761719 178.46875 289.648438 178.8125 289.382812 178.917969 C 289.121094 179.027344 288.800781 178.855469 288.671875 178.539062 C 288.542969 178.226562 288.65625 177.882812 288.917969 177.773438 C 289.183594 177.667969 289.503906 177.835938 289.628906 178.152344"/><path fill="#5479F7" d="M 270.742188 177.808594 C 271.097656 178.683594 270.789062 179.632812 270.054688 179.929688 C 269.324219 180.226562 268.441406 179.757812 268.085938 178.882812 C 267.734375 178.007812 268.039062 177.0625 268.773438 176.761719 C 269.507812 176.464844 270.390625 176.933594 270.742188 177.808594"/><path fill="#FFF" d="M 269.890625 178.152344 C 270.019531 178.46875 269.90625 178.808594 269.644531 178.914062 C 269.382812 179.019531 269.066406 178.851562 268.941406 178.539062 C 268.8125 178.226562 268.925781 177.886719 269.1875 177.78125 C 269.449219 177.675781 269.765625 177.839844 269.890625 178.152344"/><path fill="#5479F7" d="M 276.6875 177.808594 C 277.042969 178.683594 276.734375 179.632812 276.003906 179.929688 C 275.265625 180.226562 274.386719 179.757812 274.03125 178.882812 C 273.679688 178.007812 273.988281 177.0625 274.71875 176.761719 C 275.453125 176.464844 276.332031 176.933594 276.6875 177.808594"/><path fill="#FFF" d="M 275.84375 178.152344 C 275.972656 178.46875 275.859375 178.8125 275.59375 178.921875 C 275.328125 179.03125 275.003906 178.859375 274.878906 178.542969 C 274.75 178.222656 274.859375 177.878906 275.128906 177.769531 C 275.394531 177.664062 275.714844 177.832031 275.84375 178.152344"/><path fill="#5479F7" d="M 289.910156 177.019531 L 266.558594 177.019531 C 266.25 177.019531 265.96875 176.835938 265.835938 176.558594 L 247.839844 138.015625 C 247.652344 137.617188 247.824219 137.144531 248.222656 136.957031 C 248.621094 136.769531 249.09375 136.945312 249.28125 137.339844 L 267.066406 175.425781 L 289.910156 175.425781 C 290.347656 175.425781 290.707031 175.78125 290.707031 176.222656 C 290.707031 176.664062 290.347656 177.019531 289.910156 177.019531"/><path fill="#5479F7" d="M 280.921875 177.019531 C 280.625 177.019531 280.335938 176.851562 280.199219 176.5625 L 262.003906 137.71875 C 261.816406 137.320312 261.984375 136.84375 262.386719 136.660156 C 262.785156 136.472656 263.257812 136.644531 263.445312 137.042969 L 281.640625 175.886719 C 281.828125 176.285156 281.65625 176.757812 281.261719 176.945312 C 281.148438 176.996094 281.035156 177.019531 280.921875 177.019531"/><path fill="#5479F7" d="M 247.824219 138.226562 C 247.332031 138.214844 246.933594 137.847656 246.933594 137.398438 C 246.929688 136.9375 247.332031 136.5625 247.835938 136.558594 L 263.746094 136.492188 C 264.253906 136.488281 264.667969 136.863281 264.667969 137.320312 C 264.675781 137.78125 264.269531 138.15625 263.761719 138.15625 L 247.855469 138.226562 C 247.84375 138.226562 247.835938 138.226562 247.824219 138.226562"/><path fill="#CADDFF" d="M 253.320312 147.878906 L 289.375 147.878906 C 289.742188 147.878906 290.09375 148.007812 290.347656 148.269531 C 290.757812 148.691406 290.835938 149.3125 290.566406 149.808594 L 284.070312 161.875 C 283.9375 162.121094 283.679688 162.273438 283.398438 162.277344 L 260.039062 162.304688 L 253.320312 147.878906"/><path fill="#5479F7" d="M 254.574219 148.671875 L 260.546875 161.507812 L 283.398438 161.476562 L 289.867188 149.429688 C 289.976562 149.230469 289.941406 148.988281 289.78125 148.824219 C 289.6875 148.726562 289.542969 148.671875 289.378906 148.671875 Z M 260.042969 163.097656 C 259.734375 163.097656 259.453125 162.917969 259.324219 162.640625 L 252.601562 148.210938 C 252.488281 147.964844 252.503906 147.675781 252.652344 147.445312 C 252.796875 147.21875 253.050781 147.078125 253.324219 147.078125 L 289.378906 147.078125 C 289.96875 147.078125 290.53125 147.3125 290.921875 147.710938 C 291.566406 148.378906 291.710938 149.371094 291.269531 150.183594 L 284.773438 162.25 C 284.5 162.753906 283.976562 163.066406 283.402344 163.070312 L 260.042969 163.097656"/><path fill="#5479F7" d="M 278.226562 163.011719 C 278.152344 163.011719 278.070312 163 277.992188 162.976562 C 277.570312 162.84375 277.335938 162.398438 277.464844 161.980469 L 280.128906 153.371094 C 280.257812 152.953125 280.703125 152.71875 281.121094 152.84375 C 281.542969 152.976562 281.777344 153.421875 281.648438 153.839844 L 278.988281 162.449219 C 278.882812 162.792969 278.570312 163.011719 278.226562 163.011719"/><path fill="#5479F7" d="M 281.351562 152.90625 C 281.273438 152.90625 281.195312 152.894531 281.113281 152.871094 C 280.695312 152.742188 280.457031 152.296875 280.589844 151.875 L 281.453125 149.074219 C 281.582031 148.65625 282.035156 148.421875 282.449219 148.550781 C 282.867188 148.679688 283.105469 149.128906 282.972656 149.546875 L 282.109375 152.34375 C 282.007812 152.6875 281.691406 152.90625 281.351562 152.90625"/><path fill="#5479F7" d="M 270.84375 194.835938 C 261.671875 194.835938 252.820312 191.519531 245.917969 185.503906 C 239.078125 179.542969 234.597656 171.347656 233.292969 162.417969 C 233.230469 161.984375 233.53125 161.578125 233.964844 161.515625 C 234.398438 161.453125 234.804688 161.753906 234.867188 162.1875 C 237.453125 179.894531 252.917969 193.242188 270.84375 193.242188 C 288.8125 193.242188 304.28125 179.855469 306.832031 162.101562 C 306.894531 161.667969 307.296875 161.359375 307.730469 161.429688 C 308.167969 161.492188 308.46875 161.894531 308.40625 162.328125 C 305.746094 180.859375 289.597656 194.835938 270.84375 194.835938"/><path fill="#5479F7" d="M 234.089844 152.195312 C 234.050781 152.195312 234.015625 152.195312 233.972656 152.183594 C 233.539062 152.121094 233.238281 151.71875 233.304688 151.28125 C 234.625 142.371094 239.109375 134.195312 245.945312 128.253906 C 252.84375 122.25 261.6875 118.945312 270.839844 118.945312 C 289.460938 118.945312 305.203125 132.25 308.269531 150.582031 C 308.34375 151.015625 308.050781 151.425781 307.617188 151.496094 C 307.183594 151.570312 306.773438 151.277344 306.699219 150.84375 C 303.761719 133.28125 288.679688 120.539062 270.839844 120.539062 C 252.957031 120.539062 237.496094 133.855469 234.878906 151.515625 C 234.820312 151.910156 234.480469 152.195312 234.089844 152.195312"/><path fill="#5479F7" d="M 234.078125 152.683594 C 234.027344 152.683594 233.96875 152.679688 233.914062 152.667969 C 233.65625 152.609375 233.441406 152.429688 233.34375 152.1875 L 230.449219 145.019531 C 230.285156 144.613281 230.484375 144.148438 230.890625 143.988281 C 231.300781 143.820312 231.761719 144.015625 231.925781 144.421875 L 234.375 150.484375 L 239.191406 145.746094 C 239.503906 145.441406 240.011719 145.441406 240.316406 145.757812 C 240.625 146.070312 240.621094 146.574219 240.308594 146.882812 L 234.636719 152.453125 C 234.488281 152.601562 234.285156 152.683594 234.078125 152.683594"/><path fill="#5479F7" d="M 311.003906 168.433594 C 310.6875 168.433594 310.386719 168.242188 310.261719 167.933594 L 307.820312 161.875 L 302.996094 166.609375 C 302.683594 166.917969 302.183594 166.914062 301.875 166.601562 C 301.5625 166.289062 301.570312 165.78125 301.882812 165.476562 L 307.550781 159.902344 C 307.742188 159.714844 308.011719 159.640625 308.273438 159.691406 C 308.53125 159.746094 308.75 159.925781 308.851562 160.171875 L 311.738281 167.339844 C 311.90625 167.746094 311.707031 168.207031 311.300781 168.371094 C 311.203125 168.414062 311.101562 168.433594 311.003906 168.433594"/><path fill="#5479F7" d="M 457.917969 422.488281 L 281.789062 422.488281 C 276.128906 422.488281 271.882812 417.773438 272.453125 412.121094 L 282.679688 310.339844 C 283.214844 305.015625 287.84375 300.816406 293.175781 300.816406 L 469.300781 300.816406 C 474.957031 300.816406 479.207031 305.53125 478.636719 311.183594 L 468.410156 412.960938 C 467.875 418.289062 463.246094 422.488281 457.917969 422.488281"/><path fill="#CADDFF" d="M 321.9375 359.183594 L 300.667969 359.183594 C 297.167969 359.183594 294.496094 356.347656 294.695312 352.847656 L 295.40625 340.671875 C 295.605469 337.171875 298.609375 334.335938 302.109375 334.335938 L 323.382812 334.335938 C 326.882812 334.335938 329.554688 337.171875 329.351562 340.671875 L 328.644531 352.847656 C 328.441406 356.347656 325.4375 359.183594 321.9375 359.183594"/><path fill="#CADDFF" d="M 321.292969 383.757812 L 295.328125 383.757812 C 292.84375 383.757812 290.949219 381.746094 291.09375 379.261719 L 291.101562 379.144531 C 291.246094 376.664062 293.371094 374.652344 295.855469 374.652344 L 321.820312 374.652344 C 324.300781 374.652344 326.199219 376.664062 326.054688 379.144531 L 326.046875 379.261719 C 325.902344 381.746094 323.773438 383.757812 321.292969 383.757812"/><path d="M 344.789062 410.804688 L 287.53125 410.804688 C 286.042969 410.804688 284.914062 409.601562 284.996094 408.117188 C 285.082031 406.632812 286.355469 405.425781 287.84375 405.425781 L 345.101562 405.425781 C 346.585938 405.425781 347.71875 406.632812 347.632812 408.117188 C 347.546875 409.601562 346.273438 410.804688 344.789062 410.804688"/><path d="M 452.863281 410.804688 L 436.257812 410.804688 C 434.769531 410.804688 433.636719 409.601562 433.726562 408.117188 C 433.808594 406.632812 435.082031 405.425781 436.570312 405.425781 L 453.175781 405.425781 C 454.660156 405.425781 455.792969 406.632812 455.707031 408.117188 C 455.621094 409.601562 454.347656 410.804688 452.863281 410.804688"/><path fill="#CADDFF" d="M 365.683594 383.757812 L 339.722656 383.757812 C 337.238281 383.757812 335.339844 381.746094 335.488281 379.265625 L 335.492188 379.144531 C 335.640625 376.664062 337.769531 374.652344 340.25 374.652344 L 366.214844 374.652344 C 368.695312 374.652344 370.589844 376.664062 370.445312 379.144531 L 370.441406 379.265625 C 370.296875 381.746094 368.167969 383.757812 365.683594 383.757812"/><path fill="#CADDFF" d="M 410.082031 383.757812 L 384.117188 383.757812 C 381.636719 383.757812 379.738281 381.742188 379.882812 379.261719 L 379.890625 379.144531 C 380.035156 376.660156 382.167969 374.652344 384.648438 374.652344 L 410.609375 374.652344 C 413.089844 374.652344 414.988281 376.660156 414.84375 379.144531 L 414.835938 379.261719 C 414.695312 381.742188 412.566406 383.757812 410.082031 383.757812"/><path fill="#CADDFF" d="M 454.476562 383.757812 L 428.507812 383.757812 C 426.027344 383.757812 424.132812 381.746094 424.273438 379.261719 L 424.285156 379.144531 C 424.429688 376.664062 426.554688 374.652344 429.039062 374.652344 L 455.003906 374.652344 C 457.484375 374.652344 459.378906 376.664062 459.234375 379.144531 L 459.230469 379.261719 C 459.085938 381.746094 456.957031 383.757812 454.476562 383.757812"/><path d="M 456.953125 323.90625 L 425.773438 323.90625 C 422.742188 323.90625 420.425781 321.445312 420.601562 318.414062 C 420.777344 315.382812 423.375 312.921875 426.410156 312.921875 L 457.589844 312.921875 C 460.625 312.921875 462.941406 315.382812 462.761719 318.414062 C 462.585938 321.445312 459.984375 323.90625 456.953125 323.90625"/><path fill="#5479F7" d="M 161.46875 268.476562 L 161.46875 293.148438 C 161.46875 317.277344 180.523438 336.839844 204.03125 336.839844 C 227.535156 336.839844 246.59375 356.398438 246.59375 380.527344 C 246.59375 382.679688 244.851562 384.421875 242.703125 384.421875 L 130.035156 384.421875 C 94.796875 384.421875 66.230469 355.097656 66.230469 318.925781 L 66.230469 266.28125 C 66.230469 251.894531 77.589844 240.230469 91.609375 240.230469 L 133.949219 240.230469 C 149.148438 240.230469 161.46875 252.875 161.46875 268.476562"/><path fill="#5479F7" d="M 148.472656 458.816406 L 158.679688 458.816406 L 158.679688 339.960938 L 148.472656 339.960938 L 148.472656 458.816406"/><path fill="#5479F7" d="M 201.429688 462.675781 L 156.246094 458.710938 L 152.101562 458.710938 L 105.972656 462.675781 L 105.972656 465.824219 L 201.429688 465.824219 L 201.429688 462.675781"/><path fill="#FFF" d="M 184.347656 441.933594 C 185.394531 440.875 191.449219 422.042969 191.449219 422.042969 L 203.414062 430.578125 L 190.296875 448.203125 L 184.347656 441.933594"/><path d="M 185.332031 441.816406 L 190.222656 446.96875 L 202.289062 430.757812 L 191.875 423.324219 C 190.097656 428.820312 186.746094 438.984375 185.332031 441.816406 Z M 190.296875 449 C 190.082031 449 189.871094 448.910156 189.71875 448.75 L 183.769531 442.480469 C 183.480469 442.175781 183.480469 441.695312 183.765625 441.390625 C 184.472656 440.464844 187.859375 430.617188 190.691406 421.800781 C 190.769531 421.558594 190.957031 421.371094 191.199219 421.289062 C 191.441406 421.207031 191.707031 421.25 191.914062 421.394531 L 203.875 429.933594 C 204.050781 430.054688 204.167969 430.246094 204.199219 430.457031 C 204.234375 430.667969 204.179688 430.882812 204.050781 431.054688 L 190.9375 448.679688 C 190.796875 448.867188 190.582031 448.984375 190.347656 449 C 190.328125 449 190.3125 449 190.296875 449"/><path d="M 205.90625 465.746094 L 197.953125 465.699219 C 192.6875 465.664062 187.792969 462.992188 184.921875 458.578125 L 177.054688 446.128906 C 174.878906 442.6875 176.097656 438.128906 179.691406 436.214844 C 182.976562 434.472656 186.414062 432.769531 187.222656 432.847656 C 188.859375 433.003906 189.519531 440.746094 189.519531 440.746094 L 196.609375 441.019531 C 196.609375 441.019531 200.109375 455.578125 203.191406 457.234375 C 205.433594 458.4375 207 460.207031 208.054688 461.824219 C 209.160156 463.515625 207.929688 465.757812 205.90625 465.746094"/><path fill="#FFF" d="M 205.109375 463.433594 C 205.070312 463.433594 205.027344 463.433594 204.988281 463.425781 L 194.105469 461.785156 C 191.421875 461.382812 189.078125 459.816406 187.683594 457.480469 L 178.070312 441.421875 C 177.84375 441.042969 177.964844 440.554688 178.34375 440.332031 C 178.71875 440.105469 179.207031 440.226562 179.433594 440.605469 L 189.050781 456.664062 C 190.199219 458.585938 192.128906 459.878906 194.34375 460.214844 L 205.226562 461.851562 C 205.660156 461.917969 205.960938 462.324219 205.894531 462.757812 C 205.835938 463.152344 205.496094 463.433594 205.109375 463.433594"/><path fill="#FFF" d="M 191.675781 451.355469 C 191.324219 451.355469 191.003906 451.121094 190.90625 450.769531 C 190.792969 450.34375 191.042969 449.90625 191.464844 449.792969 L 197.527344 448.140625 C 197.953125 448.023438 198.390625 448.277344 198.503906 448.699219 C 198.621094 449.125 198.371094 449.5625 197.949219 449.675781 L 191.882812 451.328125 C 191.8125 451.347656 191.742188 451.355469 191.675781 451.355469"/><path fill="#FFF" d="M 194.832031 454.46875 C 194.472656 454.46875 194.148438 454.226562 194.058594 453.863281 C 193.953125 453.433594 194.214844 453.003906 194.644531 452.898438 L 198.710938 451.90625 C 199.136719 451.800781 199.566406 452.0625 199.671875 452.488281 C 199.777344 452.917969 199.515625 453.347656 199.085938 453.453125 L 195.023438 454.445312 C 194.957031 454.460938 194.894531 454.46875 194.832031 454.46875"/><path fill="#FFF" d="M 225.167969 438.339844 L 239.058594 452.296875 L 246.421875 449.59375 L 233.617188 431.742188 L 225.167969 438.339844"/><path d="M 226.367188 438.414062 L 239.265625 451.371094 L 245.164062 449.207031 L 233.457031 432.878906 Z M 239.058594 453.09375 C 238.851562 453.09375 238.648438 453.011719 238.496094 452.855469 L 224.605469 438.902344 C 224.445312 438.742188 224.359375 438.519531 224.375 438.292969 C 224.386719 438.066406 224.5 437.855469 224.679688 437.714844 L 233.128906 431.113281 C 233.296875 430.980469 233.515625 430.917969 233.730469 430.953125 C 233.945312 430.980469 234.140625 431.097656 234.265625 431.277344 L 247.070312 449.128906 C 247.214844 449.332031 247.257812 449.585938 247.183594 449.824219 C 247.109375 450.0625 246.929688 450.253906 246.695312 450.339844 L 239.332031 453.042969 C 239.246094 453.074219 239.152344 453.09375 239.058594 453.09375"/><path d="M 234.671875 450.113281 C 234.671875 450.113281 233.996094 456.046875 235.140625 461.292969 C 235.746094 464.089844 238.265625 466.054688 241.125 466.054688 L 275.214844 466.054688 C 277.648438 466.054688 278.753906 463.015625 276.886719 461.449219 C 270.824219 456.375 259.675781 448.621094 245.964844 446.34375 L 242.144531 451.695312 L 234.671875 450.113281"/><path fill="#FFF" d="M 273.59375 462.167969 L 238.265625 462.167969 C 237.824219 462.167969 237.46875 461.808594 237.46875 461.371094 C 237.46875 460.929688 237.824219 460.574219 238.265625 460.574219 L 273.59375 460.574219 C 274.03125 460.574219 274.386719 460.929688 274.386719 461.371094 C 274.386719 461.808594 274.03125 462.167969 273.59375 462.167969"/><path fill="#FFF" d="M 253.878906 455.890625 C 253.777344 455.890625 253.679688 455.871094 253.578125 455.828125 C 253.171875 455.664062 252.976562 455.199219 253.144531 454.792969 L 255.015625 450.257812 C 255.179688 449.847656 255.648438 449.65625 256.054688 449.824219 C 256.460938 449.992188 256.65625 450.457031 256.488281 450.863281 L 254.617188 455.398438 C 254.488281 455.707031 254.195312 455.890625 253.878906 455.890625"/><path fill="#FFF" d="M 260.03125 457.085938 C 259.945312 457.085938 259.859375 457.070312 259.78125 457.042969 C 259.363281 456.90625 259.136719 456.453125 259.273438 456.035156 L 260.625 451.945312 C 260.765625 451.527344 261.214844 451.304688 261.632812 451.441406 C 262.050781 451.578125 262.277344 452.027344 262.136719 452.445312 L 260.785156 456.535156 C 260.671875 456.871094 260.363281 457.085938 260.03125 457.085938"/><path fill="#99B9FF" d="M 151.648438 340.703125 C 151.648438 340.703125 215.125 333.3125 234.003906 349.648438 C 252.878906 365.988281 204.207031 436.242188 204.207031 436.242188 L 188.8125 424.828125 L 203.414062 375.171875 L 144.734375 358.511719 L 151.648438 340.703125"/><path d="M 189.734375 424.519531 L 204.015625 435.113281 C 208.925781 427.855469 250.636719 365.101562 233.480469 350.253906 C 215.9375 335.066406 158.078125 340.8125 152.214844 341.441406 L 145.792969 357.984375 L 203.632812 374.40625 C 203.835938 374.46875 204.007812 374.605469 204.109375 374.789062 C 204.214844 374.976562 204.238281 375.195312 204.179688 375.398438 Z M 204.207031 437.039062 C 204.035156 437.039062 203.871094 436.984375 203.730469 436.882812 L 188.339844 425.46875 C 188.070312 425.269531 187.957031 424.925781 188.050781 424.605469 L 202.421875 375.71875 L 144.515625 359.277344 C 144.300781 359.214844 144.121094 359.066406 144.023438 358.867188 C 143.921875 358.667969 143.910156 358.433594 143.992188 358.222656 L 150.90625 340.414062 C 151.011719 340.136719 151.261719 339.945312 151.554688 339.910156 C 154.164062 339.605469 215.597656 332.671875 234.523438 349.050781 C 253.71875 365.664062 206.863281 433.804688 204.859375 436.695312 C 204.738281 436.875 204.546875 436.996094 204.335938 437.027344 C 204.292969 437.035156 204.25 437.039062 204.207031 437.039062"/><path fill="#99B9FF" d="M 116.714844 373.039062 C 125.933594 375.964844 142.433594 379.746094 165.492188 379.429688 C 172.042969 379.34375 178.09375 382.960938 181.070312 388.800781 C 187.898438 402.191406 202.683594 426.304688 226.765625 441.933594 L 238.265625 435.738281 L 208.910156 369.667969 C 206.230469 363.636719 201.21875 358.949219 195.019531 356.675781 L 136.84375 335.347656 C 136.84375 335.347656 118.804688 330.308594 109.960938 346.40625 C 108.378906 349.28125 105.449219 344.140625 104.75 346.460938 C 102.355469 354.417969 108.792969 370.523438 116.714844 373.039062"/><path d="M 165.734375 378.632812 C 172.554688 378.632812 178.6875 382.371094 181.777344 388.4375 C 188.390625 401.402344 203.007812 425.40625 226.804688 441.011719 L 237.234375 435.390625 L 208.183594 369.996094 C 205.605469 364.191406 200.707031 359.609375 194.746094 357.425781 L 136.601562 336.109375 C 135.546875 335.820312 118.992188 331.617188 110.65625 346.792969 C 110.285156 347.46875 109.796875 347.890625 109.199219 348.039062 C 108.15625 348.308594 107.152344 347.667969 106.339844 347.152344 C 106.089844 346.992188 105.734375 346.769531 105.515625 346.675781 C 105.515625 346.679688 105.511719 346.6875 105.511719 346.691406 C 103.273438 354.128906 109.410156 369.882812 116.953125 372.277344 C 126.628906 375.347656 142.90625 378.933594 165.480469 378.636719 C 165.566406 378.632812 165.652344 378.632812 165.734375 378.632812 Z M 226.765625 442.734375 C 226.613281 442.734375 226.460938 442.6875 226.332031 442.601562 C 201.988281 426.804688 187.082031 402.339844 180.359375 389.160156 C 177.542969 383.632812 171.953125 380.226562 165.734375 380.226562 C 165.65625 380.226562 165.582031 380.226562 165.503906 380.226562 C 142.699219 380.535156 126.257812 376.902344 116.472656 373.796875 C 108.101562 371.140625 101.523438 354.421875 103.988281 346.234375 C 104.160156 345.664062 104.46875 345.292969 104.910156 345.128906 C 105.679688 344.847656 106.449219 345.335938 107.195312 345.8125 C 107.71875 346.140625 108.425781 346.59375 108.804688 346.5 C 108.992188 346.449219 109.160156 346.214844 109.261719 346.027344 C 118.304688 329.558594 136.871094 334.53125 137.058594 334.582031 C 137.078125 334.585938 137.097656 334.59375 137.117188 334.601562 L 195.292969 355.929688 C 201.65625 358.261719 206.886719 363.152344 209.640625 369.347656 L 238.992188 435.417969 C 239.160156 435.796875 239.011719 436.242188 238.640625 436.4375 L 227.140625 442.636719 C 227.023438 442.699219 226.890625 442.734375 226.765625 442.734375"/><path fill="#FFF" d="M 166.070312 289.433594 C 166.070312 289.433594 171.65625 340.125 209.144531 343.445312 L 166.070312 344.054688 C 166.070312 344.054688 150.121094 311.738281 149.476562 299.160156 C 148.828125 286.578125 166.070312 289.433594 166.070312 289.433594"/><path d="M 162.089844 289.957031 C 159.117188 289.957031 155.097656 290.433594 152.601562 292.664062 C 150.914062 294.175781 150.128906 296.347656 150.269531 299.117188 C 150.859375 310.59375 164.644531 339.300781 166.566406 343.25 L 201.257812 342.757812 C 189.246094 339.199219 179.515625 329.921875 172.828125 315.53125 C 167.519531 304.113281 165.734375 292.867188 165.359375 290.144531 C 164.695312 290.066406 163.511719 289.957031 162.089844 289.957031 Z M 166.070312 344.851562 C 165.769531 344.851562 165.492188 344.679688 165.359375 344.40625 C 164.703125 343.082031 149.328125 311.800781 148.679688 299.199219 C 148.511719 295.921875 149.476562 293.324219 151.542969 291.476562 C 156.453125 287.09375 165.804688 288.585938 166.203125 288.652344 C 166.554688 288.710938 166.824219 288.996094 166.863281 289.347656 C 166.878906 289.472656 168.320312 302.078125 174.289062 314.894531 C 182.230469 331.964844 193.984375 341.304688 209.214844 342.652344 C 209.640625 342.6875 209.957031 343.050781 209.941406 343.472656 C 209.925781 343.894531 209.582031 344.234375 209.160156 344.238281 L 166.082031 344.851562 C 166.078125 344.851562 166.074219 344.851562 166.070312 344.851562"/><path d="M 112.714844 257.21875 C 119.984375 255.511719 123.019531 255.488281 149.457031 256.445312 C 155.917969 256.679688 163.605469 264.789062 164.363281 271.210938 C 162.3125 277.367188 152.832031 307.773438 169.378906 331.527344 C 171.726562 334.898438 174.917969 338.597656 179.300781 342.140625 C 176.839844 344.128906 173.015625 346.722656 167.875 348.246094 C 159.347656 350.777344 155.058594 348.039062 148.183594 348.246094 C 130 348.789062 123.332031 369.035156 111.589844 366.496094 C 108.453125 365.816406 104.296875 363.371094 100.398438 355.164062 C 98.191406 348.363281 96.226562 340.375 95.132812 331.347656 C 92.164062 306.875 97.019531 286.5 101.355469 273.714844 C 102.644531 269.675781 104.140625 259.238281 112.714844 257.21875"/><path d="M 171 295.117188 C 171 295.117188 166.722656 260.84375 154.402344 257.914062 C 158.738281 271.234375 160.179688 285.730469 159.550781 301.070312 C 159.523438 301.707031 160.222656 302.109375 160.757812 301.761719 L 171 295.117188"/><path fill="#CADDFF" d="M 254.597656 291.792969 L 209.863281 291.792969 C 207.980469 291.792969 206.226562 292.734375 205.222656 294.28125 L 188.4375 343.675781 L 148.84375 343.675781 L 148.84375 344.417969 C 148.84375 346.746094 150.734375 348.636719 153.070312 348.636719 L 237.097656 348.636719 C 239.433594 348.636719 241.324219 346.746094 241.324219 344.417969 L 241.324219 343.765625 L 256.492188 297.582031 C 256.722656 296.875 257.007812 296.195312 257.273438 295.503906 C 257.933594 293.761719 256.625 291.792969 254.597656 291.792969"/><path d="M 241.324219 343.765625 L 241.328125 343.765625 Z M 149.640625 344.472656 C 149.671875 346.335938 151.199219 347.84375 153.070312 347.84375 L 237.097656 347.84375 C 238.988281 347.84375 240.527344 346.304688 240.527344 344.417969 L 240.527344 343.765625 C 240.527344 343.660156 240.546875 343.558594 240.585938 343.46875 L 255.738281 297.332031 C 255.90625 296.808594 256.105469 296.296875 256.300781 295.800781 C 256.375 295.609375 256.453125 295.414062 256.527344 295.21875 C 256.75 294.636719 256.667969 293.996094 256.300781 293.46875 C 255.917969 292.910156 255.292969 292.589844 254.59375 292.589844 L 209.863281 292.589844 C 208.273438 292.589844 206.8125 293.355469 205.941406 294.636719 L 189.191406 343.929688 C 189.082031 344.253906 188.78125 344.472656 188.4375 344.472656 Z M 237.097656 349.4375 L 153.070312 349.4375 C 150.300781 349.4375 148.046875 347.183594 148.046875 344.417969 L 148.046875 343.675781 C 148.046875 343.238281 148.40625 342.878906 148.84375 342.878906 L 187.867188 342.878906 L 204.46875 294.023438 C 204.488281 293.964844 204.519531 293.902344 204.554688 293.847656 C 205.710938 292.0625 207.699219 291 209.863281 291 L 254.59375 291 C 255.828125 291 256.925781 291.566406 257.609375 292.5625 C 258.269531 293.519531 258.417969 294.722656 258.015625 295.785156 C 257.9375 295.984375 257.863281 296.183594 257.785156 296.382812 C 257.589844 296.875 257.40625 297.34375 257.246094 297.828125 L 242.121094 343.898438 L 242.121094 344.417969 C 242.121094 347.183594 239.867188 349.4375 237.097656 349.4375"/><path fill="#FFF" d="M 221.6875 317.109375 C 221.058594 319.203125 222.019531 321.34375 223.839844 321.890625 C 225.660156 322.441406 227.644531 321.191406 228.277344 319.097656 C 228.90625 317.007812 227.941406 314.867188 226.125 314.316406 C 224.300781 313.769531 222.320312 315.019531 221.6875 317.109375"/><path fill="#FFF" d="M 226.769531 344.558594 L 197.617188 344.558594 C 197.179688 344.558594 196.820312 344.203125 196.820312 343.765625 C 196.820312 343.324219 197.179688 342.96875 197.617188 342.96875 L 226.769531 342.96875 C 227.210938 342.96875 227.566406 343.324219 227.566406 343.765625 C 227.566406 344.203125 227.210938 344.558594 226.769531 344.558594"/><path fill="#FFF" d="M 241.613281 344.558594 L 236.445312 344.558594 C 236.007812 344.558594 235.652344 344.203125 235.652344 343.765625 C 235.652344 343.324219 236.007812 342.96875 236.445312 342.96875 L 241.613281 342.96875 C 242.054688 342.96875 242.410156 343.324219 242.410156 343.765625 C 242.410156 344.203125 242.054688 344.558594 241.613281 344.558594"/><path fill="#FFF" d="M 174.859375 339.339844 C 172.300781 335.335938 167.597656 333.300781 165.015625 333.449219 C 153.261719 334.113281 130.597656 322.226562 113.746094 316.480469 C 110.824219 312.230469 112.949219 302.945312 111.621094 291.800781 L 90.125 293.660156 C 87.980469 304.28125 88.796875 322.316406 90.652344 324.703125 C 91.882812 327.628906 98.570312 336.125 112.152344 342.75 C 133.382812 353.097656 161.804688 346.332031 161.804688 346.332031 C 161.804688 346.332031 176.207031 353.945312 182.429688 345.671875 C 182.429688 345.671875 177.421875 343.34375 174.859375 339.339844"/><path d="M 161.804688 345.535156 C 161.933594 345.535156 162.0625 345.566406 162.175781 345.628906 C 162.308594 345.699219 175.136719 352.347656 181.179688 345.921875 C 179.5625 345.03125 176.195312 342.90625 174.191406 339.769531 C 171.757812 335.964844 167.316406 334.117188 165.058594 334.242188 C 156.855469 334.699219 143.574219 329.238281 130.722656 323.949219 C 124.871094 321.539062 118.816406 319.046875 113.488281 317.230469 C 113.324219 317.175781 113.183594 317.070312 113.085938 316.929688 C 111.222656 314.214844 111.257812 309.851562 111.300781 304.328125 C 111.332031 300.824219 111.363281 296.882812 110.917969 292.660156 L 90.789062 294.398438 C 88.707031 305.488281 89.808594 322.320312 91.28125 324.214844 C 91.324219 324.269531 91.363281 324.332031 91.390625 324.394531 C 92.65625 327.410156 99.480469 335.683594 112.5 342.035156 C 133.234375 352.140625 161.339844 345.625 161.621094 345.558594 C 161.679688 345.542969 161.742188 345.535156 161.804688 345.535156 Z M 173.800781 350.347656 C 168.386719 350.347656 162.980469 347.816406 161.699219 347.171875 C 158.617188 347.84375 131.894531 353.253906 111.800781 343.464844 C 97.457031 336.46875 91.125 327.746094 89.957031 325.097656 C 87.925781 322.105469 87.234375 303.945312 89.34375 293.5 C 89.414062 293.152344 89.703125 292.894531 90.054688 292.867188 L 111.550781 291.007812 C 111.976562 290.960938 112.359375 291.277344 112.410156 291.703125 C 112.960938 296.316406 112.925781 300.582031 112.894531 304.339844 C 112.851562 309.425781 112.820312 313.472656 114.261719 315.8125 C 119.574219 317.640625 125.550781 320.097656 131.332031 322.480469 C 144.015625 327.699219 157.132812 333.105469 164.96875 332.652344 C 168.011719 332.488281 172.921875 334.824219 175.53125 338.910156 C 177.933594 342.667969 182.714844 344.929688 182.765625 344.953125 C 182.980469 345.050781 183.140625 345.246094 183.199219 345.480469 C 183.257812 345.714844 183.210938 345.957031 183.066406 346.148438 C 180.675781 349.328125 177.238281 350.347656 173.800781 350.347656"/><path d="M 179.886719 346.835938 C 178.898438 346.835938 175.042969 346.476562 169.496094 341.441406 C 169.171875 341.144531 169.148438 340.640625 169.445312 340.316406 C 169.738281 339.992188 170.242188 339.964844 170.566406 340.261719 C 176.285156 345.453125 179.929688 345.238281 179.96875 345.238281 C 180.402344 345.195312 180.800781 345.515625 180.84375 345.953125 C 180.886719 346.390625 180.570312 346.78125 180.132812 346.824219 C 180.109375 346.828125 180.027344 346.835938 179.886719 346.835938"/><path d="M 176.144531 348.78125 C 174.976562 348.78125 171.660156 348.371094 167.066406 344.375 C 166.734375 344.085938 166.695312 343.582031 166.984375 343.25 C 167.273438 342.917969 167.777344 342.882812 168.109375 343.171875 C 173.144531 347.546875 176.332031 347.179688 176.363281 347.179688 C 176.789062 347.121094 177.195312 347.421875 177.257812 347.851562 C 177.320312 348.28125 177.03125 348.683594 176.597656 348.753906 C 176.570312 348.757812 176.414062 348.78125 176.144531 348.78125"/><path d="M 87.433594 301.371094 C 87.289062 301.386719 87.167969 301.273438 87.175781 301.128906 C 87.328125 298.691406 88.484375 280.503906 90.125 273.171875 C 93.828125 256.621094 116.664062 256.597656 116.664062 256.597656 C 112.460938 270.777344 111.101562 284.375 112.433594 297.421875 C 112.515625 298.222656 111.941406 298.941406 111.136719 299.019531 L 87.433594 301.371094"/><path fill="#FFF" d="M 134.726562 239.4375 L 135.628906 252.011719 C 135.828125 253.644531 137.007812 254.992188 138.601562 255.410156 L 143.019531 256.558594 L 140.152344 258.742188 C 133.796875 263.578125 124.996094 264.570312 118.632812 259.746094 L 114.097656 256.304688 L 119.585938 255.078125 C 121.164062 254.726562 122.375 252.480469 122.660156 250.890625 L 125.085938 234.253906 L 134.726562 239.4375"/><path d="M 115.945312 256.707031 L 119.117188 259.109375 C 124.878906 263.480469 133.140625 263.082031 139.671875 258.109375 L 141.234375 256.917969 L 138.402344 256.179688 C 136.476562 255.679688 135.078125 254.078125 134.835938 252.105469 L 133.960938 239.933594 L 125.710938 235.492188 L 123.449219 251.003906 C 123.132812 252.761719 121.785156 255.402344 119.761719 255.855469 Z M 128.296875 263.726562 C 124.640625 263.726562 121.105469 262.617188 118.152344 260.378906 L 113.617188 256.941406 C 113.371094 256.753906 113.253906 256.4375 113.320312 256.132812 C 113.386719 255.832031 113.621094 255.59375 113.925781 255.527344 L 119.414062 254.300781 C 120.5 254.058594 121.613281 252.226562 121.878906 250.75 L 124.296875 234.136719 C 124.335938 233.882812 124.496094 233.65625 124.726562 233.542969 C 124.960938 233.425781 125.234375 233.429688 125.464844 233.550781 L 135.101562 238.734375 C 135.339844 238.863281 135.5 239.109375 135.519531 239.378906 L 136.421875 251.953125 C 136.578125 253.234375 137.515625 254.300781 138.800781 254.636719 L 143.21875 255.789062 C 143.515625 255.867188 143.738281 256.105469 143.800781 256.402344 C 143.859375 256.703125 143.742188 257.007812 143.5 257.191406 L 140.636719 259.375 C 136.835938 262.265625 132.488281 263.726562 128.296875 263.726562"/><path d="M 149.015625 221.9375 C 145.992188 220.335938 148.425781 225.320312 138.480469 216.710938 C 134.519531 213.289062 134.378906 219.683594 133.347656 218.796875 C 129.546875 215.523438 129.679688 215.632812 127.28125 215.214844 C 125.691406 214.941406 123.566406 217.128906 122.933594 219.203125 C 122.101562 221.945312 123.921875 223.582031 123.300781 229.886719 C 122.863281 234.316406 121.46875 236.488281 122.746094 237.75 C 124.035156 239.019531 126.136719 237.464844 127.652344 238.746094 C 129.613281 240.410156 127.375 244.101562 128.824219 246.71875 C 129.734375 248.371094 132.730469 250.3125 139.035156 250.160156 C 140.058594 250.136719 140.925781 249.386719 141.089844 248.375 C 141.304688 247.078125 141.566406 245.4375 141.683594 243.851562 C 142.246094 236.292969 140.621094 233.78125 142.222656 232.488281 C 144.679688 230.507812 148.851562 234.195312 150.625 232.457031 C 152.464844 230.652344 153.152344 224.125 149.015625 221.9375"/><path fill="#FFF" d="M 133.972656 226.175781 L 134.097656 228.238281 C 134.15625 229.214844 134.148438 230.1875 134.074219 231.160156 C 133.933594 232.984375 133.714844 236.121094 133.722656 237.886719 C 133.742188 240.484375 141.761719 240.988281 141.761719 240.988281 L 142.777344 239.855469 L 143.71875 239.894531 C 143.902344 239.90625 144.085938 239.875 144.25 239.789062 C 144.652344 239.578125 144.855469 239.144531 144.785156 238.726562 C 144.40625 236.433594 143.742188 231.375 144.476562 227.441406 C 144.476562 227.441406 140.015625 223.820312 133.972656 226.175781"/><path d="M 134.804688 226.722656 L 134.894531 228.191406 C 134.953125 229.199219 134.945312 230.21875 134.867188 231.222656 C 134.734375 232.960938 134.511719 236.136719 134.519531 237.882812 C 134.527344 238.933594 138.089844 239.902344 141.429688 240.167969 L 142.1875 239.324219 C 142.34375 239.148438 142.574219 239.054688 142.8125 239.0625 L 143.753906 239.101562 C 143.824219 239.105469 143.863281 239.09375 143.882812 239.082031 C 143.988281 239.027344 144.011719 238.925781 144 238.855469 C 143.585938 236.351562 143.003906 231.679688 143.609375 227.796875 C 142.527344 227.082031 139.175781 225.261719 134.804688 226.722656 Z M 141.761719 241.785156 C 141.742188 241.785156 141.726562 241.785156 141.710938 241.78125 C 139.65625 241.652344 132.949219 240.992188 132.929688 237.894531 C 132.917969 236.179688 133.113281 233.253906 133.28125 231.097656 C 133.351562 230.167969 133.359375 229.222656 133.304688 228.289062 L 133.179688 226.222656 C 133.15625 225.878906 133.363281 225.558594 133.683594 225.433594 C 140.085938 222.941406 144.78125 226.664062 144.980469 226.824219 C 145.203125 227.007812 145.3125 227.300781 145.261719 227.589844 C 144.535156 231.460938 145.238281 236.574219 145.570312 238.597656 C 145.699219 239.367188 145.316406 240.128906 144.617188 240.496094 C 144.34375 240.636719 144.019531 240.703125 143.6875 240.691406 L 143.121094 240.667969 L 142.351562 241.519531 C 142.199219 241.691406 141.984375 241.785156 141.761719 241.785156"/><path fill="#FFF" d="M 132.5625 232.539062 C 132.5625 232.539062 132.269531 227.574219 130.042969 228.199219 C 127.816406 228.828125 128.277344 234.289062 132.5625 232.539062"/><path fill="#FFF" d="M 155.066406 469.214844 L 130.210938 366.078125 L 105.355469 469.214844 L 99.394531 469.214844 L 126.707031 355.054688 L 133.710938 355.046875 L 161.023438 469.214844 L 155.066406 469.214844"/><path d="M 155.695312 468.417969 L 160.015625 468.417969 L 133.085938 355.84375 L 127.335938 355.851562 L 100.40625 468.417969 L 104.726562 468.417969 L 130.210938 362.679688 Z M 162.035156 470.011719 L 154.441406 470.011719 L 154.292969 469.402344 L 130.210938 369.472656 L 105.980469 470.011719 L 98.386719 470.011719 L 126.078125 354.261719 L 134.339844 354.25 L 134.488281 354.863281 L 162.035156 470.011719"/><path fill="#FFF" d="M 296.261719 468.859375 L 271.402344 365.722656 L 246.546875 468.859375 L 240.589844 468.859375 L 267.898438 354.703125 L 274.90625 354.695312 L 302.21875 468.859375 L 296.261719 468.859375"/><path d="M 296.886719 468.066406 L 301.210938 468.066406 L 274.277344 355.492188 L 268.527344 355.5 L 241.597656 468.066406 L 245.921875 468.066406 L 271.402344 362.324219 Z M 303.226562 469.65625 L 295.632812 469.65625 L 295.488281 469.046875 L 271.402344 369.121094 L 247.175781 469.65625 L 239.582031 469.65625 L 267.273438 353.910156 L 275.535156 353.898438 L 275.679688 354.507812 L 303.226562 469.65625"/><path fill="#FFF" d="M 103.515625 357.039062 L 299.574219 357.039062 L 299.574219 347.714844 L 103.515625 347.714844 L 103.515625 357.039062"/><path d="M 104.3125 356.242188 L 298.777344 356.242188 L 298.777344 348.507812 L 104.3125 348.507812 Z M 300.367188 357.835938 L 102.71875 357.835938 L 102.71875 346.917969 L 300.367188 346.917969 L 300.367188 357.835938"/><path fill="#5479F7" d="M 162.878906 355.644531 C 162.4375 355.644531 162.082031 355.285156 162.082031 354.847656 L 162.082031 349.65625 C 162.082031 349.214844 162.4375 348.859375 162.878906 348.859375 C 163.316406 348.859375 163.675781 349.214844 163.675781 349.65625 L 163.675781 354.847656 C 163.675781 355.285156 163.316406 355.644531 162.878906 355.644531"/></svg>