<svg xmlns="http://www.w3.org/2000/svg" width="525" viewBox="0 0 525 525" height="525" version="1.0"><defs><clipPath id="a"><path d="M 4.808594 41 L 501 41 L 501 471.640625 L 4.808594 471.640625 Z M 4.808594 41"/></clipPath><clipPath id="b"><path d="M 12.039062 41 L 519 41 L 519 471.640625 L 12.039062 471.640625 Z M 12.039062 41"/></clipPath><clipPath id="c"><path d="M 30.636719 31.476562 L 503.8125 31.476562 L 503.8125 471.640625 L 30.636719 471.640625 Z M 30.636719 31.476562"/></clipPath><clipPath id="d"><path d="M 5 67 L 519.84375 67 L 519.84375 471.640625 L 5 471.640625 Z M 5 67"/></clipPath><clipPath id="e"><path d="M 110.1875 42 L 501 42 L 501 471.640625 L 110.1875 471.640625 Z M 110.1875 42"/></clipPath></defs><g clip-path="url(#a)"><path fill="#CADDFF" d="M 279.855469 98.617188 L 381.480469 98.617188 C 385.011719 98.617188 387.890625 95.742188 387.890625 92.203125 C 387.890625 88.664062 385.011719 85.785156 381.480469 85.785156 L 279.855469 85.785156 C 276.320312 85.785156 273.441406 88.664062 273.441406 92.203125 C 273.441406 95.742188 276.320312 98.617188 279.855469 98.617188 Z M 334.457031 55.277344 C 338.363281 55.277344 341.539062 52.09375 341.539062 48.183594 C 341.539062 44.277344 338.363281 41.09375 334.457031 41.09375 C 330.550781 41.09375 327.375 44.277344 327.375 48.183594 C 327.375 52.09375 330.550781 55.277344 334.457031 55.277344 Z M 489.496094 471.078125 L 4.808594 471.078125 C 4.808594 471.078125 31.785156 381.496094 80.933594 338.089844 C 130.074219 294.6875 119.957031 307.285156 147.898438 237.765625 C 175.847656 168.238281 246.667969 175.113281 296.777344 172.277344 C 325.820312 170.628906 347.742188 139.578125 376.238281 118 L 342.132812 118 C 338.597656 118 335.726562 115.121094 335.726562 111.582031 C 335.726562 108.050781 338.597656 105.167969 342.132812 105.167969 L 396.96875 105.167969 C 412.972656 97.613281 431.367188 94.578125 453.84375 100.859375 C 531.894531 122.664062 489.496094 471.078125 489.496094 471.078125"/></g><g clip-path="url(#b)"><path fill="#0380F6" d="M 355.207031 41.09375 C 351.300781 41.09375 348.121094 44.277344 348.121094 48.183594 C 348.121094 52.09375 351.300781 55.277344 355.207031 55.277344 C 359.113281 55.277344 362.292969 52.09375 362.292969 48.183594 C 362.292969 44.277344 359.113281 41.09375 355.207031 41.09375 Z M 455.902344 92.203125 C 455.902344 88.664062 453.027344 85.785156 449.492188 85.785156 L 397.878906 85.785156 C 394.34375 85.785156 391.46875 88.664062 391.46875 92.203125 C 391.46875 95.742188 394.34375 98.617188 397.878906 98.617188 L 449.492188 98.617188 C 453.027344 98.617188 455.902344 95.742188 455.902344 92.203125 Z M 218.871094 270.210938 C 218.628906 266.402344 215.472656 263.4375 211.660156 263.4375 L 19.574219 263.4375 C 15.402344 263.4375 12.09375 266.960938 12.363281 271.128906 L 21.71875 418.679688 C 21.960938 422.488281 25.117188 425.453125 28.933594 425.453125 L 81.917969 425.453125 L 64.550781 471.078125 L 93.457031 471.078125 L 110.824219 425.453125 L 221.019531 425.453125 C 225.191406 425.453125 228.496094 421.929688 228.234375 417.765625 Z M 25.886719 208.367188 L 35.761719 208.367188 C 36.761719 208.367188 37.570312 207.5625 37.570312 206.558594 C 37.570312 205.5625 36.761719 204.75 35.761719 204.75 L 25.886719 204.75 C 24.886719 204.75 24.078125 205.5625 24.078125 206.558594 C 24.078125 207.5625 24.886719 208.367188 25.886719 208.367188 Z M 25.886719 228.546875 L 35.761719 228.546875 C 36.761719 228.546875 37.570312 227.734375 37.570312 226.738281 C 37.570312 225.738281 36.761719 224.933594 35.761719 224.933594 L 25.886719 224.933594 C 24.886719 224.933594 24.078125 225.738281 24.078125 226.738281 C 24.078125 227.734375 24.886719 228.546875 25.886719 228.546875 Z M 287.054688 332.394531 C 286.230469 332.132812 285.429688 332.027344 284.648438 332.070312 C 274.234375 332.082031 267.867188 357.5 267.867188 357.5 L 335.289062 357.5 C 335.683594 348.984375 338.019531 340.644531 342.179688 333.136719 C 342.167969 333.140625 342.15625 333.144531 342.148438 333.152344 C 342.15625 333.144531 342.167969 333.136719 342.183594 333.132812 L 342.183594 333.136719 C 342.179688 333.136719 342.179688 333.136719 342.179688 333.136719 C 343.261719 332.625 344.433594 332.382812 345.601562 332.402344 L 345.601562 332.394531 Z M 25.886719 198.277344 L 35.761719 198.277344 C 36.761719 198.277344 37.570312 197.46875 37.570312 196.46875 C 37.570312 195.472656 36.761719 194.664062 35.761719 194.664062 L 25.886719 194.664062 C 24.886719 194.664062 24.078125 195.472656 24.078125 196.46875 C 24.078125 197.46875 24.886719 198.277344 25.886719 198.277344 Z M 431.753906 168.753906 L 431.753906 208.214844 L 518.640625 208.214844 L 518.640625 168.753906 Z M 413.417969 259.1875 L 500.304688 259.1875 L 500.304688 219.730469 L 413.417969 219.730469 Z M 25.886719 218.457031 L 35.761719 218.457031 C 36.761719 218.457031 37.570312 217.648438 37.570312 216.648438 C 37.570312 215.652344 36.761719 214.84375 35.761719 214.84375 L 25.886719 214.84375 C 24.886719 214.84375 24.078125 215.652344 24.078125 216.648438 C 24.078125 217.648438 24.886719 218.457031 25.886719 218.457031 Z M 25.886719 127.652344 L 35.761719 127.652344 C 36.761719 127.652344 37.570312 126.847656 37.570312 125.84375 C 37.570312 124.847656 36.761719 124.035156 35.761719 124.035156 L 25.886719 124.035156 C 24.886719 124.035156 24.078125 124.847656 24.078125 125.84375 C 24.078125 126.847656 24.886719 127.652344 25.886719 127.652344 Z M 25.886719 137.742188 L 35.761719 137.742188 C 36.761719 137.742188 37.570312 136.929688 37.570312 135.933594 C 37.570312 134.9375 36.761719 134.125 35.761719 134.125 L 25.886719 134.125 C 24.886719 134.125 24.078125 134.9375 24.078125 135.933594 C 24.078125 136.929688 24.886719 137.742188 25.886719 137.742188 Z M 157.675781 227.328125 L 212.828125 227.328125 C 216.820312 227.328125 220.054688 224.089844 220.054688 220.09375 L 220.054688 146 C 220.054688 142.003906 216.820312 138.765625 212.828125 138.765625 L 157.675781 138.765625 C 153.683594 138.765625 150.445312 142.003906 150.445312 146 L 150.445312 220.09375 C 150.445312 224.089844 153.683594 227.328125 157.675781 227.328125 Z M 25.886719 147.832031 L 35.761719 147.832031 C 36.761719 147.832031 37.570312 147.019531 37.570312 146.023438 C 37.570312 145.027344 36.761719 144.214844 35.761719 144.214844 L 25.886719 144.214844 C 24.886719 144.214844 24.078125 145.027344 24.078125 146.023438 C 24.078125 147.019531 24.886719 147.832031 25.886719 147.832031 Z M 128.148438 119.554688 L 123.8125 119.554688 L 123.8125 233.03125 L 128.148438 233.03125 Z M 25.886719 178.101562 L 35.761719 178.101562 C 36.761719 178.101562 37.570312 177.289062 37.570312 176.289062 C 37.570312 175.292969 36.761719 174.484375 35.761719 174.484375 L 25.886719 174.484375 C 24.886719 174.484375 24.078125 175.292969 24.078125 176.289062 C 24.078125 177.289062 24.886719 178.101562 25.886719 178.101562 Z M 25.886719 168.011719 L 35.761719 168.011719 C 36.761719 168.011719 37.570312 167.203125 37.570312 166.203125 C 37.570312 165.203125 36.761719 164.394531 35.761719 164.394531 L 25.886719 164.394531 C 24.886719 164.394531 24.078125 165.203125 24.078125 166.203125 C 24.078125 167.203125 24.886719 168.011719 25.886719 168.011719 Z M 25.886719 188.191406 L 35.761719 188.191406 C 36.761719 188.191406 37.570312 187.378906 37.570312 186.378906 C 37.570312 185.382812 36.761719 184.570312 35.761719 184.570312 L 25.886719 184.570312 C 24.886719 184.570312 24.078125 185.382812 24.078125 186.378906 C 24.078125 187.378906 24.886719 188.191406 25.886719 188.191406 Z M 24.078125 156.113281 C 24.078125 155.113281 24.886719 154.304688 25.886719 154.304688 L 35.761719 154.304688 C 36.761719 154.304688 37.570312 155.113281 37.570312 156.113281 C 37.570312 157.109375 36.761719 157.921875 35.761719 157.921875 L 25.886719 157.921875 C 24.886719 157.921875 24.078125 157.109375 24.078125 156.113281"/></g><g clip-path="url(#c)"><path fill="#FFF" d="M 30.824219 124.035156 L 35.761719 124.035156 C 36.761719 124.035156 37.570312 124.847656 37.570312 125.84375 C 37.570312 126.847656 36.761719 127.652344 35.761719 127.652344 L 30.824219 127.652344 L 30.824219 134.125 L 35.761719 134.125 C 36.761719 134.125 37.570312 134.9375 37.570312 135.933594 C 37.570312 136.929688 36.761719 137.742188 35.761719 137.742188 L 30.824219 137.742188 L 30.824219 144.214844 L 35.761719 144.214844 C 36.761719 144.214844 37.570312 145.027344 37.570312 146.023438 C 37.570312 147.019531 36.761719 147.832031 35.761719 147.832031 L 30.824219 147.832031 L 30.824219 154.304688 L 35.761719 154.304688 C 36.761719 154.304688 37.570312 155.113281 37.570312 156.113281 C 37.570312 157.109375 36.761719 157.921875 35.761719 157.921875 L 30.824219 157.921875 L 30.824219 164.394531 L 35.761719 164.394531 C 36.761719 164.394531 37.570312 165.203125 37.570312 166.203125 C 37.570312 167.203125 36.761719 168.011719 35.761719 168.011719 L 30.824219 168.011719 L 30.824219 174.484375 L 35.761719 174.484375 C 36.761719 174.484375 37.570312 175.292969 37.570312 176.289062 C 37.570312 177.289062 36.761719 178.101562 35.761719 178.101562 L 30.824219 178.101562 L 30.824219 184.570312 L 35.761719 184.570312 C 36.761719 184.570312 37.570312 185.382812 37.570312 186.378906 C 37.570312 187.378906 36.761719 188.191406 35.761719 188.191406 L 30.824219 188.191406 L 30.824219 194.664062 L 35.761719 194.664062 C 36.761719 194.664062 37.570312 195.472656 37.570312 196.46875 C 37.570312 197.46875 36.761719 198.277344 35.761719 198.277344 L 30.824219 198.277344 L 30.824219 204.75 L 35.761719 204.75 C 36.761719 204.75 37.570312 205.5625 37.570312 206.558594 C 37.570312 207.5625 36.761719 208.367188 35.761719 208.367188 L 30.824219 208.367188 L 30.824219 214.84375 L 35.761719 214.84375 C 36.761719 214.84375 37.570312 215.652344 37.570312 216.648438 C 37.570312 217.648438 36.761719 218.457031 35.761719 218.457031 L 30.824219 218.457031 L 30.824219 224.933594 L 35.761719 224.933594 C 36.761719 224.933594 37.570312 225.738281 37.570312 226.738281 C 37.570312 227.734375 36.761719 228.546875 35.761719 228.546875 L 30.824219 228.546875 L 30.824219 237.050781 L 123.8125 237.050781 L 123.8125 115.539062 L 30.824219 115.539062 Z M 454.695312 92.203125 C 454.695312 89.324219 452.367188 86.992188 449.492188 86.992188 L 397.878906 86.992188 C 395 86.992188 392.671875 89.324219 392.671875 92.203125 C 392.671875 95.078125 395 97.414062 397.878906 97.414062 L 449.492188 97.414062 C 452.367188 97.414062 454.695312 95.078125 454.695312 92.203125 Z M 454.695312 111.582031 C 454.695312 108.707031 452.367188 106.371094 449.492188 106.371094 L 342.132812 106.371094 C 339.261719 106.371094 336.925781 108.707031 336.925781 111.582031 C 336.925781 114.460938 339.261719 116.792969 342.132812 116.792969 L 449.492188 116.792969 C 452.367188 116.792969 454.695312 114.460938 454.695312 111.582031 Z M 279.855469 97.414062 L 381.480469 97.414062 C 384.355469 97.414062 386.6875 95.078125 386.6875 92.203125 C 386.6875 89.324219 384.355469 86.992188 381.480469 86.992188 L 279.855469 86.992188 C 276.976562 86.992188 274.648438 89.324219 274.648438 92.203125 C 274.648438 95.078125 276.976562 97.414062 279.855469 97.414062 Z M 328.582031 48.183594 C 328.582031 51.433594 331.214844 54.066406 334.457031 54.066406 C 337.707031 54.066406 340.335938 51.433594 340.335938 48.183594 C 340.335938 44.9375 337.707031 42.304688 334.457031 42.304688 C 331.214844 42.304688 328.582031 44.9375 328.582031 48.183594 Z M 349.328125 48.183594 C 349.328125 51.433594 351.960938 54.066406 355.207031 54.066406 C 358.453125 54.066406 361.085938 51.433594 361.085938 48.183594 C 361.085938 44.9375 358.453125 42.304688 355.207031 42.304688 C 351.960938 42.304688 349.328125 44.9375 349.328125 48.183594 Z M 466.21875 133.695312 L 244.195312 133.695312 C 240.203125 133.695312 236.96875 130.460938 236.96875 126.464844 L 236.96875 38.707031 C 236.96875 34.714844 240.203125 31.472656 244.195312 31.472656 L 466.21875 31.472656 C 470.210938 31.472656 473.445312 34.714844 473.445312 38.707031 L 473.445312 126.464844 C 473.445312 130.460938 470.210938 133.695312 466.21875 133.695312 Z M 360.996094 155.179688 C 360.996094 157.773438 363.097656 159.878906 365.695312 159.878906 C 368.289062 159.878906 370.390625 157.773438 370.390625 155.179688 C 370.390625 152.582031 368.289062 150.476562 365.695312 150.476562 C 363.097656 150.476562 360.996094 152.582031 360.996094 155.179688 Z M 442.207031 330.105469 C 442.207031 332.703125 444.308594 334.808594 446.902344 334.808594 C 449.5 334.808594 451.601562 332.703125 451.601562 330.105469 C 451.601562 327.507812 449.5 325.40625 446.902344 325.40625 C 444.308594 325.40625 442.207031 327.507812 442.207031 330.105469 Z M 376.667969 367.21875 C 372.636719 362.691406 363.351562 358.007812 363.351562 358.007812 C 363.351562 358.007812 363.34375 358.015625 363.34375 358.015625 C 364.664062 361.609375 365.890625 365.238281 367.066406 368.882812 C 360.964844 371.445312 354.101562 374.554688 350.339844 377.023438 C 348.519531 378.21875 347.421875 379.261719 347.488281 380.019531 C 347.671875 382 349.582031 382.820312 351.472656 383.144531 C 352.75 383.363281 354.003906 383.359375 354.710938 383.328125 C 354.695312 383.03125 354.890625 382.757812 355.1875 382.703125 L 370.417969 379.742188 L 372.363281 379.367188 C 372.695312 379.304688 373.007812 379.515625 373.070312 379.84375 C 373.136719 380.167969 372.921875 380.484375 372.59375 380.546875 L 370.769531 380.902344 L 355.417969 383.886719 C 355.390625 383.890625 355.359375 383.890625 355.332031 383.894531 C 355.417969 385.246094 355.847656 388.554688 357.847656 389.839844 C 357.886719 389.863281 357.914062 389.886719 357.945312 389.910156 C 358.039062 389.789062 358.179688 389.707031 358.34375 389.683594 L 372.753906 387.847656 L 375.007812 387.558594 C 375.023438 387.554688 375.039062 387.566406 375.058594 387.566406 C 375.367188 387.546875 375.640625 387.769531 375.683594 388.082031 C 375.699219 388.222656 375.65625 388.347656 375.59375 388.460938 C 375.5 388.613281 375.351562 388.730469 375.15625 388.757812 L 373.085938 389.019531 L 358.921875 390.824219 C 359.105469 391.0625 359.257812 391.3125 359.386719 391.566406 C 360.152344 393.078125 360.171875 394.792969 361.578125 395.6875 C 362.292969 396.144531 364.222656 396.191406 366.515625 396.011719 C 366.503906 395.972656 366.484375 395.9375 366.480469 395.898438 C 366.429688 395.570312 366.648438 395.257812 366.976562 395.207031 L 368.691406 394.925781 L 374.433594 394 L 377.972656 393.425781 L 380.335938 393.046875 C 380.667969 392.984375 380.972656 393.214844 381.027344 393.542969 C 381.078125 393.871094 380.855469 394.179688 380.523438 394.234375 L 377.21875 394.769531 C 379.019531 395.304688 380.253906 394.992188 380.269531 394.988281 C 380.589844 394.898438 380.921875 395.089844 381.007812 395.414062 C 381.097656 395.730469 380.910156 396.058594 380.589844 396.148438 C 380.488281 396.179688 378.085938 396.8125 374.972656 395.132812 L 374.75 395.167969 C 374.929688 395.859375 375.125 396.550781 375.308594 397.242188 C 376.730469 398.105469 378.03125 399.109375 379.15625 400.140625 C 382.46875 403.175781 387.515625 403.269531 390.824219 400.222656 L 390.9375 400.117188 C 394.058594 397.246094 394.605469 392.523438 392.21875 389.019531 C 387.289062 381.757812 379.367188 370.253906 376.667969 367.21875 Z M 496.167969 437.410156 C 496.167969 435.011719 494.21875 433.058594 491.820312 433.058594 L 479.867188 433.058594 L 479.867188 454.046875 L 491.820312 454.046875 C 494.21875 454.046875 496.167969 452.09375 496.167969 449.691406 Z M 503.394531 437.410156 L 503.394531 449.691406 C 503.394531 456.082031 498.203125 461.28125 491.820312 461.28125 L 479.867188 461.28125 L 479.867188 471.078125 L 427.511719 471.078125 L 427.511719 414.335938 L 479.867188 414.335938 L 479.867188 425.824219 L 491.820312 425.824219 C 498.203125 425.824219 503.394531 431.023438 503.394531 437.410156 Z M 344.839844 222.472656 C 341.703125 210.164062 350.070312 183.65625 328.621094 182.085938 C 315.214844 181.105469 305.386719 185.71875 298.945312 192.964844 C 293.476562 199.101562 290.710938 207.1875 290.777344 215.414062 C 290.878906 228.953125 293.425781 256.476562 312.664062 252.511719 L 313.976562 262.980469 C 313.976562 262.980469 338.042969 258.527344 351.382812 239.941406 C 351.382812 239.941406 347.980469 234.773438 344.839844 222.472656 Z M 252.332031 238.496094 C 249.738281 238.496094 247.632812 240.597656 247.632812 243.195312 C 247.632812 245.792969 249.738281 247.898438 252.332031 247.898438 C 254.925781 247.898438 257.027344 245.792969 257.027344 243.195312 C 257.027344 240.597656 254.925781 238.496094 252.332031 238.496094 Z M 184.171875 454.113281 C 176.28125 454.359375 174.875 464.105469 170.226562 463.195312 C 166.851562 462.53125 168.542969 456.738281 169.972656 452.75 C 170.511719 451.246094 171.011719 449.988281 171.191406 449.371094 C 171.832031 447.121094 159.945312 441.976562 156.734375 442.300781 C 154.769531 442.496094 148.480469 445.214844 143.378906 446.636719 C 140.136719 447.542969 137.371094 447.921875 136.5 446.800781 C 134.25 443.90625 149.667969 433.621094 157.058594 433.109375 C 164.441406 432.597656 181.464844 435.871094 181.464844 435.871094 C 197.851562 443.90625 192.066406 453.871094 184.171875 454.113281"/></g><g clip-path="url(#d)"><path fill="#0380F6" d="M 299.988281 215.253906 C 300.324219 215.253906 300.65625 215.113281 300.894531 214.847656 C 301.332031 214.347656 301.285156 213.582031 300.785156 213.140625 C 297.566406 210.308594 293.128906 212.304688 292.941406 212.390625 C 292.339844 212.667969 292.078125 213.382812 292.351562 213.988281 C 292.628906 214.59375 293.347656 214.855469 293.949219 214.585938 C 293.980469 214.566406 297.160156 213.160156 299.195312 214.953125 C 299.417969 215.152344 299.707031 215.253906 299.988281 215.253906 Z M 316.753906 215.253906 C 317.238281 215.253906 317.699219 214.957031 317.878906 214.472656 C 318.113281 213.84375 317.792969 213.152344 317.171875 212.921875 L 309.558594 210.070312 C 308.941406 209.839844 308.238281 210.152344 308.007812 210.777344 C 307.773438 211.402344 308.09375 212.097656 308.714844 212.328125 L 316.328125 215.179688 C 316.464844 215.230469 316.613281 215.253906 316.753906 215.253906 Z M 162.207031 180.535156 L 167.71875 180.535156 C 169.09375 180.535156 170.210938 179.421875 170.210938 178.042969 L 170.210938 172.527344 C 170.210938 171.148438 169.09375 170.035156 167.71875 170.035156 L 162.207031 170.035156 C 160.832031 170.035156 159.714844 171.148438 159.714844 172.527344 L 159.714844 178.042969 C 159.714844 179.421875 160.832031 180.535156 162.207031 180.535156 Z M 47.855469 463.195312 C 43.503906 463.195312 39.976562 466.722656 39.976562 471.078125 L 190.621094 471.078125 C 183.519531 465.953125 174.988281 463.195312 166.234375 463.195312 Z M 137.542969 459.699219 C 140.191406 460.902344 143.925781 459.214844 143.925781 459.214844 C 143.925781 459.214844 145.976562 460.300781 149.828125 459.578125 C 153.683594 458.855469 159.257812 453.792969 164.117188 453.433594 C 165.878906 453.296875 168.03125 453.148438 169.972656 452.75 C 170.511719 451.246094 171.011719 449.988281 171.191406 449.371094 C 171.832031 447.121094 159.945312 441.976562 156.734375 442.300781 C 154.769531 442.496094 148.480469 445.214844 143.378906 446.636719 C 140.871094 448.921875 138.875 450.988281 138.625 451.980469 C 137.902344 454.878906 138.144531 455.480469 138.144531 455.480469 C 138.144531 455.480469 134.894531 458.492188 137.542969 459.699219 Z M 342.175781 333.136719 C 342.179688 333.136719 342.179688 333.136719 342.179688 333.136719 C 342.179688 333.136719 342.179688 333.136719 342.183594 333.136719 L 342.183594 333.132812 C 342.179688 333.132812 342.179688 333.136719 342.175781 333.136719 Z M 162.207031 193.363281 L 167.71875 193.363281 C 169.09375 193.363281 170.210938 192.25 170.210938 190.871094 L 170.210938 185.355469 C 170.210938 183.976562 169.09375 182.863281 167.71875 182.863281 L 162.207031 182.863281 C 160.832031 182.863281 159.714844 183.976562 159.714844 185.355469 L 159.714844 190.871094 C 159.714844 192.25 160.832031 193.363281 162.207031 193.363281 Z M 162.207031 219.019531 L 167.71875 219.019531 C 169.09375 219.019531 170.210938 217.898438 170.210938 216.523438 L 170.210938 211.011719 C 170.210938 209.632812 169.09375 208.515625 167.71875 208.515625 L 162.207031 208.515625 C 160.832031 208.515625 159.714844 209.632812 159.714844 211.011719 L 159.714844 216.523438 C 159.714844 217.898438 160.832031 219.019531 162.207031 219.019531 Z M 162.207031 206.191406 L 167.71875 206.191406 C 169.09375 206.191406 170.210938 205.078125 170.210938 203.699219 L 170.210938 198.183594 C 170.210938 196.804688 169.09375 195.6875 167.71875 195.6875 L 162.207031 195.6875 C 160.832031 195.6875 159.714844 196.804688 159.714844 198.183594 L 159.714844 203.699219 C 159.714844 205.078125 160.832031 206.191406 162.207031 206.191406 Z M 108.234375 137.742188 L 46.402344 137.742188 L 46.402344 154.304688 L 108.234375 154.304688 Z M 489.265625 222.140625 L 424.453125 222.140625 C 423.234375 226.285156 419.96875 229.550781 415.828125 230.773438 L 415.828125 248.144531 C 419.96875 249.363281 423.234375 252.632812 424.453125 256.777344 L 489.265625 256.777344 C 490.488281 252.632812 493.75 249.363281 497.894531 248.144531 L 497.894531 230.773438 C 493.75 229.550781 490.488281 226.285156 489.265625 222.140625 Z M 488.738281 218.523438 L 501.507812 218.523438 L 501.507812 260.394531 L 412.214844 260.394531 L 412.214844 218.523438 Z M 475.199219 175.097656 C 469.699219 175.097656 465.238281 181.09375 465.238281 188.484375 C 465.238281 195.875 469.699219 201.871094 475.199219 201.871094 C 480.699219 201.871094 485.152344 195.875 485.152344 188.484375 C 485.152344 181.09375 480.699219 175.097656 475.199219 175.097656 Z M 372.59375 380.546875 C 372.921875 380.484375 373.136719 380.167969 373.070312 379.84375 C 373.007812 379.515625 372.695312 379.304688 372.363281 379.367188 L 370.417969 379.742188 L 355.1875 382.703125 C 354.890625 382.757812 354.695312 383.03125 354.710938 383.328125 C 354.71875 383.355469 354.707031 383.378906 354.710938 383.410156 C 354.769531 383.695312 355.019531 383.894531 355.300781 383.894531 C 355.308594 383.894531 355.320312 383.894531 355.332031 383.894531 C 355.359375 383.890625 355.390625 383.890625 355.417969 383.886719 L 370.769531 380.902344 Z M 516.234375 179.800781 C 512.089844 178.578125 508.824219 175.3125 507.605469 171.164062 L 442.792969 171.164062 C 441.570312 175.3125 438.308594 178.578125 434.164062 179.800781 L 434.164062 197.167969 C 438.308594 198.390625 441.570312 201.65625 442.792969 205.804688 L 507.605469 205.804688 C 508.824219 201.65625 512.089844 198.390625 516.234375 197.167969 Z M 519.84375 167.550781 L 519.84375 209.417969 L 430.550781 209.417969 L 430.550781 167.550781 Z M 375.15625 388.757812 C 375.351562 388.730469 375.5 388.613281 375.59375 388.460938 C 375.65625 388.347656 375.699219 388.222656 375.683594 388.082031 C 375.640625 387.769531 375.367188 387.546875 375.058594 387.566406 C 375.039062 387.566406 375.023438 387.554688 375.007812 387.558594 L 372.753906 387.847656 L 358.34375 389.683594 C 358.179688 389.707031 358.039062 389.789062 357.945312 389.910156 C 357.847656 390.03125 357.800781 390.195312 357.820312 390.359375 C 357.828125 390.421875 357.851562 390.476562 357.875 390.53125 C 357.964844 390.71875 358.140625 390.84375 358.34375 390.871094 C 358.367188 390.875 358.394531 390.882812 358.417969 390.882812 C 358.445312 390.882812 358.46875 390.882812 358.496094 390.878906 L 358.921875 390.824219 L 373.085938 389.019531 Z M 392.21875 389.019531 C 387.289062 381.757812 379.367188 370.253906 376.667969 367.21875 C 372.636719 362.691406 363.351562 358.007812 363.351562 358.007812 C 363.351562 358.007812 363.34375 358.015625 363.34375 358.015625 C 362.566406 355.882812 361.761719 353.761719 360.90625 351.660156 C 359.507812 348.214844 358 344.792969 356.226562 341.519531 C 355.316406 339.859375 353.417969 337.355469 352.039062 335.589844 C 350.429688 333.546875 348.023438 332.429688 345.601562 332.402344 L 345.601562 332.394531 L 287.054688 332.394531 C 286.230469 332.132812 285.429688 332.027344 284.648438 332.070312 C 274.234375 332.082031 267.867188 357.5 267.867188 357.5 L 335.289062 357.5 C 335.234375 358.652344 335.214844 359.816406 335.234375 360.976562 C 335.234375 361.039062 335.238281 361.101562 335.238281 361.164062 C 335.257812 362.304688 335.308594 363.453125 335.402344 364.59375 L 304.617188 364.59375 C 308.808594 376.957031 312.316406 389.550781 315.558594 402.195312 C 316.582031 406.1875 317.578125 410.191406 318.523438 414.207031 C 318.589844 414.476562 318.660156 415.519531 318.859375 415.886719 C 318.9375 415.921875 318.996094 415.949219 319.074219 415.988281 L 338.957031 415.988281 C 348.015625 415.988281 357.074219 415.988281 366.132812 415.988281 C 370.746094 415.988281 375.355469 415.988281 379.96875 415.988281 C 379.269531 412.945312 378.523438 409.910156 377.773438 406.882812 C 376.871094 403.253906 375.9375 399.640625 374.980469 396.03125 C 375.089844 396.433594 375.203125 396.839844 375.308594 397.242188 C 376.730469 398.105469 378.03125 399.109375 379.15625 400.140625 C 382.46875 403.175781 387.515625 403.269531 390.824219 400.222656 L 390.9375 400.117188 C 394.058594 397.246094 394.605469 392.523438 392.21875 389.019531 Z M 418.585938 278.996094 C 427.246094 293.652344 441.78125 363.128906 451.671875 414.335938 L 427.511719 414.335938 L 427.511719 471.078125 L 271.402344 471.078125 L 271.402344 441.574219 C 271.460938 440.824219 271.402344 440.371094 271.402344 440.371094 L 271.402344 441.574219 C 271.167969 444.617188 268.984375 452.578125 252.902344 455.15625 C 232.859375 458.371094 196.242188 463.195312 196.242188 463.195312 C 196.242188 463.195312 175.042969 453.492188 176.328125 433.109375 C 176.328125 433.109375 182.269531 430.042969 190.765625 425.453125 L 110.824219 425.453125 L 122.367188 395.140625 L 93.457031 395.140625 L 81.917969 425.453125 L 21.871094 425.453125 C 18.054688 425.453125 14.894531 422.488281 14.652344 418.679688 L 5.296875 271.128906 C 5.027344 266.960938 8.335938 263.4375 12.507812 263.4375 L 204.59375 263.4375 C 208.40625 263.4375 211.5625 266.402344 211.804688 270.210938 L 221.167969 417.765625 C 221.429688 421.929688 218.125 425.453125 213.953125 425.453125 L 221.019531 425.453125 C 225.191406 425.453125 228.496094 421.929688 228.234375 417.765625 L 227.394531 404.558594 C 238.660156 397.613281 247.800781 391.175781 249.558594 387.652344 C 254.699219 377.367188 272.6875 280.929688 304.808594 266.140625 C 308.4375 264.46875 311.269531 265.121094 314.640625 263.652344 C 341.113281 252.128906 359.734375 244.601562 359.734375 244.601562 C 359.734375 244.601562 404.523438 255.210938 418.585938 278.996094 Z M 456.859375 252.84375 C 462.359375 252.84375 466.816406 246.851562 466.816406 239.460938 C 466.816406 232.066406 462.359375 226.070312 456.859375 226.070312 C 451.363281 226.070312 446.902344 232.066406 446.902344 239.460938 C 446.902344 246.851562 451.363281 252.84375 456.859375 252.84375 Z M 380.269531 394.988281 C 380.253906 394.992188 379.019531 395.304688 377.21875 394.769531 L 380.523438 394.234375 C 380.855469 394.179688 381.078125 393.871094 381.027344 393.542969 C 380.972656 393.214844 380.667969 392.984375 380.335938 393.046875 L 377.972656 393.425781 L 374.433594 394 L 368.691406 394.925781 L 366.976562 395.207031 C 366.648438 395.257812 366.429688 395.570312 366.480469 395.898438 C 366.484375 395.9375 366.503906 395.972656 366.515625 396.011719 C 366.605469 396.238281 366.824219 396.40625 367.074219 396.40625 C 367.105469 396.40625 367.136719 396.402344 367.171875 396.394531 L 371.882812 395.632812 L 374.75 395.167969 L 374.972656 395.132812 C 378.085938 396.8125 380.488281 396.179688 380.589844 396.148438 C 380.910156 396.058594 381.097656 395.730469 381.007812 395.414062 C 380.921875 395.089844 380.589844 394.898438 380.269531 394.988281 Z M 189.257812 206.191406 L 194.769531 206.191406 C 196.148438 206.191406 197.261719 205.078125 197.261719 203.699219 L 197.261719 198.183594 C 197.261719 196.804688 196.148438 195.6875 194.769531 195.6875 L 189.257812 195.6875 C 187.882812 195.6875 186.769531 196.804688 186.769531 198.183594 L 186.769531 203.699219 C 186.769531 205.078125 187.882812 206.191406 189.257812 206.191406 Z M 202.785156 180.535156 L 208.292969 180.535156 C 209.671875 180.535156 210.789062 179.421875 210.789062 178.042969 L 210.789062 172.527344 C 210.789062 171.148438 209.671875 170.035156 208.292969 170.035156 L 202.785156 170.035156 C 201.410156 170.035156 200.292969 171.148438 200.292969 172.527344 L 200.292969 178.042969 C 200.292969 179.421875 201.410156 180.535156 202.785156 180.535156 Z M 175.730469 219.019531 L 181.242188 219.019531 C 182.617188 219.019531 183.738281 217.898438 183.738281 216.523438 L 183.738281 211.011719 C 183.738281 209.632812 182.617188 208.515625 181.242188 208.515625 L 175.730469 208.515625 C 174.355469 208.515625 173.238281 209.632812 173.238281 211.011719 L 173.238281 216.523438 C 173.238281 217.898438 174.355469 219.019531 175.730469 219.019531 Z M 202.785156 193.363281 L 208.292969 193.363281 C 209.671875 193.363281 210.789062 192.25 210.789062 190.871094 L 210.789062 185.355469 C 210.789062 183.976562 209.671875 182.863281 208.292969 182.863281 L 202.785156 182.863281 C 201.410156 182.863281 200.292969 183.976562 200.292969 185.355469 L 200.292969 190.871094 C 200.292969 192.25 201.410156 193.363281 202.785156 193.363281 Z M 202.785156 219.019531 L 208.292969 219.019531 C 209.671875 219.019531 210.789062 217.898438 210.789062 216.523438 L 210.789062 198.183594 C 210.789062 196.804688 209.671875 195.6875 208.292969 195.6875 L 202.785156 195.6875 C 201.410156 195.6875 200.292969 196.804688 200.292969 198.183594 L 200.292969 216.523438 C 200.292969 217.898438 201.410156 219.019531 202.785156 219.019531 Z M 318.613281 178.683594 C 298.925781 180.253906 282.582031 167.945312 278.660156 185.878906 C 274.738281 203.816406 292.453125 204.402344 292.453125 204.402344 C 296.222656 205.03125 309.527344 201.457031 316.589844 204.335938 C 323.652344 207.21875 324.699219 219 324.699219 219 L 327.578125 219.523438 C 327.578125 219.523438 328.621094 206.695312 334.378906 206.535156 C 340.132812 206.378906 335.164062 217.355469 335.164062 217.355469 C 335.945312 221.730469 339.347656 224.851562 339.347656 224.851562 L 344.839844 222.472656 C 343.570312 217.894531 344.011719 208.070312 344.011719 208.070312 C 346.578125 188.503906 338.304688 177.109375 318.613281 178.683594 Z M 298.503906 222.046875 C 299.316406 222.023438 299.949219 221.1875 299.921875 220.179688 C 299.886719 219.167969 299.210938 218.371094 298.402344 218.394531 C 297.589844 218.417969 296.957031 219.253906 296.988281 220.257812 C 297.015625 221.269531 297.691406 222.070312 298.503906 222.046875 Z M 310.132812 219.730469 C 310.054688 220.734375 310.640625 221.609375 311.445312 221.671875 C 312.257812 221.742188 312.976562 220.976562 313.058594 219.972656 C 313.144531 218.964844 312.554688 218.097656 311.75 218.035156 C 310.941406 217.964844 310.21875 218.722656 310.132812 219.730469 Z M 303.523438 229.90625 L 304.410156 221.40625 C 304.410156 221.40625 297.566406 226.734375 298.464844 227.878906 C 299.355469 229.027344 303.523438 229.90625 303.523438 229.90625 Z M 279.855469 78.03125 L 325.738281 78.03125 C 328.609375 78.03125 330.941406 75.695312 330.941406 72.820312 C 330.941406 69.945312 328.609375 67.609375 325.738281 67.609375 L 279.855469 67.609375 C 276.976562 67.609375 274.648438 69.945312 274.648438 72.820312 C 274.648438 75.695312 276.976562 78.03125 279.855469 78.03125 Z M 175.730469 180.535156 L 181.242188 180.535156 C 182.617188 180.535156 183.738281 179.421875 183.738281 178.042969 L 183.738281 172.527344 C 183.738281 171.148438 182.617188 170.035156 181.242188 170.035156 L 175.730469 170.035156 C 174.355469 170.035156 173.238281 171.148438 173.238281 172.527344 L 173.238281 178.042969 C 173.238281 179.421875 174.355469 180.535156 175.730469 180.535156 Z M 189.257812 219.019531 L 194.769531 219.019531 C 196.148438 219.019531 197.261719 217.898438 197.261719 216.523438 L 197.261719 211.011719 C 197.261719 209.632812 196.148438 208.515625 194.769531 208.515625 L 189.257812 208.515625 C 187.882812 208.515625 186.769531 209.632812 186.769531 211.011719 L 186.769531 216.523438 C 186.769531 217.898438 187.882812 219.019531 189.257812 219.019531 Z M 175.730469 206.191406 L 181.242188 206.191406 C 182.617188 206.191406 183.738281 205.078125 183.738281 203.699219 L 183.738281 198.183594 C 183.738281 196.804688 182.617188 195.6875 181.242188 195.6875 L 175.730469 195.6875 C 174.355469 195.6875 173.238281 196.804688 173.238281 198.183594 L 173.238281 203.699219 C 173.238281 205.078125 174.355469 206.191406 175.730469 206.191406 Z M 189.257812 180.535156 L 194.769531 180.535156 C 196.148438 180.535156 197.261719 179.421875 197.261719 178.042969 L 197.261719 172.527344 C 197.261719 171.148438 196.148438 170.035156 194.769531 170.035156 L 189.257812 170.035156 C 187.882812 170.035156 186.769531 171.148438 186.769531 172.527344 L 186.769531 178.042969 C 186.769531 179.421875 187.882812 180.535156 189.257812 180.535156 Z M 175.730469 193.363281 L 181.242188 193.363281 C 182.617188 193.363281 183.738281 192.25 183.738281 190.871094 L 183.738281 185.355469 C 183.738281 183.976562 182.617188 182.863281 181.242188 182.863281 L 175.730469 182.863281 C 174.355469 182.863281 173.238281 183.976562 173.238281 185.355469 L 173.238281 190.871094 C 173.238281 192.25 174.355469 193.363281 175.730469 193.363281 Z M 186.769531 190.871094 L 186.769531 185.355469 C 186.769531 183.976562 187.882812 182.863281 189.257812 182.863281 L 194.769531 182.863281 C 196.148438 182.863281 197.261719 183.976562 197.261719 185.355469 L 197.261719 190.871094 C 197.261719 192.25 196.148438 193.363281 194.769531 193.363281 L 189.257812 193.363281 C 187.882812 193.363281 186.769531 192.25 186.769531 190.871094"/></g><g clip-path="url(#e)"><path fill="#FFF" d="M 375.648438 398.535156 C 375.921875 399.574219 376.175781 400.609375 376.441406 401.648438 C 388.4375 417.371094 415.503906 442.132812 427.511719 452.863281 L 427.511719 451.246094 C 414.496094 439.59375 386.21875 413.597656 375.648438 398.535156 Z M 326.328125 253.921875 L 313.976562 262.980469 L 312.75 253.191406 L 303.28125 262.480469 L 303.28125 273.453125 L 310.191406 271.464844 L 312.554688 284.273438 L 331.710938 266.582031 L 337.972656 274.175781 L 367.839844 242.714844 L 355.554688 230.296875 Z M 313.742188 395.242188 C 313.984375 421.558594 315.304688 448.527344 318.636719 471.167969 C 318.683594 471.464844 318.941406 471.679688 319.230469 471.679688 C 319.257812 471.679688 319.292969 471.679688 319.320312 471.675781 C 319.652344 471.628906 319.875 471.320312 319.828125 470.988281 C 316.703125 449.785156 315.355469 424.761719 315 400.042969 C 314.585938 398.441406 314.167969 396.84375 313.742188 395.242188 Z M 318.949219 284.191406 C 318.976562 283.859375 318.730469 283.570312 318.398438 283.542969 C 318.0625 283.511719 317.777344 283.757812 317.75 284.089844 C 317.710938 284.5625 316.066406 304.328125 314.882812 332.394531 L 316.085938 332.394531 C 317.269531 304.390625 318.90625 284.664062 318.949219 284.191406 Z M 438.652344 401.902344 L 411.238281 390.878906 C 409.605469 387.3125 388.792969 341.414062 386.371094 318.953125 C 383.871094 295.761719 393.132812 273.347656 393.230469 273.125 C 393.359375 272.816406 393.214844 272.460938 392.90625 272.332031 C 392.601562 272.203125 392.246094 272.347656 392.117188 272.65625 C 392.023438 272.882812 382.640625 295.574219 385.175781 319.085938 C 387.460938 340.316406 405.964844 382.128906 409.617188 390.230469 L 386.742188 381.03125 C 387.164062 381.632812 387.574219 382.230469 387.988281 382.828125 L 410.554688 391.902344 C 410.5625 391.90625 410.570312 391.910156 410.578125 391.914062 L 438.203125 403.023438 C 438.277344 403.050781 438.351562 403.066406 438.429688 403.066406 C 438.664062 403.066406 438.890625 402.925781 438.984375 402.6875 C 439.105469 402.378906 438.960938 402.027344 438.652344 401.902344 Z M 404.546875 188.484375 C 404.546875 185.886719 402.441406 183.785156 399.847656 183.785156 C 397.253906 183.785156 395.148438 185.886719 395.148438 188.484375 C 395.148438 191.082031 397.253906 193.1875 399.847656 193.1875 C 402.441406 193.1875 404.546875 191.082031 404.546875 188.484375 Z M 483.046875 361.480469 C 477.796875 368.476562 472.832031 375.085938 470.984375 380.058594 C 469.902344 382.960938 469.695312 386.289062 469.453125 390.144531 C 469.039062 396.6875 468.523438 404.578125 463.636719 414.335938 L 464.890625 414.335938 C 471.945312 402.789062 473.136719 393.664062 474.03125 386.761719 C 474.375 384.105469 474.671875 381.8125 475.222656 379.695312 C 476.878906 373.332031 483.855469 365.03125 491.234375 356.242188 C 494.042969 352.902344 496.886719 349.515625 499.460938 346.199219 C 499.738281 340.128906 499.984375 333.957031 500.195312 327.722656 C 499.648438 333.300781 498.539062 338.671875 495.363281 343.914062 C 491.691406 349.972656 487.300781 355.828125 483.046875 361.480469 Z M 490.578125 328.839844 C 490.078125 348.078125 473.875 359.261719 466.238281 373.582031 C 458.601562 387.898438 465.878906 403.148438 460.914062 414.335938 L 462.28125 414.335938 C 467.320312 404.527344 467.835938 396.617188 468.25 390.070312 C 468.5 386.117188 468.710938 382.710938 469.855469 379.636719 C 471.765625 374.5 476.546875 368.128906 482.085938 360.757812 C 486.316406 355.125 490.695312 349.300781 494.335938 343.289062 C 498.589844 336.269531 499.011719 328.882812 499.460938 321.0625 C 499.699219 316.945312 499.945312 312.742188 500.722656 308.394531 C 500.875 300.917969 500.964844 293.390625 500.984375 285.863281 C 497.453125 295.429688 490.945312 314.847656 490.578125 328.839844 Z M 286.929688 297.371094 C 286.605469 297.308594 286.289062 297.527344 286.226562 297.851562 C 286.175781 298.144531 284.132812 309.203125 281.550781 327.742188 C 278.226562 318.261719 280.3125 312.296875 280.335938 312.234375 C 280.449219 311.921875 280.285156 311.574219 279.976562 311.460938 C 279.664062 311.34375 279.316406 311.507812 279.199219 311.816406 C 279.097656 312.113281 276.625 319.109375 281.207031 330.226562 C 281.070312 331.21875 280.933594 332.230469 280.796875 333.261719 C 281.222656 333 281.660156 332.777344 282.101562 332.597656 C 284.972656 311.289062 287.351562 298.390625 287.414062 298.074219 C 287.472656 297.746094 287.257812 297.433594 286.929688 297.371094 Z M 438.859375 147.832031 C 438.859375 145.234375 436.757812 143.132812 434.164062 143.132812 C 431.566406 143.132812 429.464844 145.234375 429.464844 147.832031 C 429.464844 150.429688 431.566406 152.535156 434.164062 152.535156 C 436.757812 152.535156 438.859375 150.429688 438.859375 147.832031 Z M 476.386719 380 C 475.859375 382.046875 475.566406 384.300781 475.226562 386.914062 C 474.335938 393.808594 473.136719 402.878906 466.292969 414.335938 L 468.296875 414.335938 C 468.296875 414.335938 476.019531 402.222656 475.765625 391.929688 C 475.511719 381.640625 485.726562 376.714844 497.6875 360.609375 C 498.074219 360.089844 498.449219 359.585938 498.828125 359.078125 C 499.015625 355.515625 499.195312 351.914062 499.363281 348.273438 C 497.0625 351.175781 494.601562 354.113281 492.160156 357.019531 C 484.863281 365.699219 477.976562 373.898438 476.386719 380 Z M 159.714844 165.90625 L 210.789062 165.90625 L 210.789062 151.609375 L 159.714844 151.609375 Z M 243.113281 339.742188 C 240.519531 339.742188 238.417969 341.847656 238.417969 344.445312 C 238.417969 347.042969 240.519531 349.144531 243.113281 349.144531 C 245.707031 349.144531 247.8125 347.042969 247.8125 344.445312 C 247.8125 341.847656 245.707031 339.742188 243.113281 339.742188 Z M 155.886719 248.144531 C 153.292969 248.144531 151.1875 250.25 151.1875 252.84375 C 151.1875 255.441406 153.292969 257.546875 155.886719 257.546875 C 158.476562 257.546875 160.585938 255.441406 160.585938 252.84375 C 160.585938 250.25 158.476562 248.144531 155.886719 248.144531 Z M 481.089844 285.261719 C 483.679688 285.261719 485.789062 283.15625 485.789062 280.5625 C 485.789062 277.964844 483.679688 275.859375 481.089844 275.859375 C 478.496094 275.859375 476.394531 277.964844 476.394531 280.5625 C 476.394531 283.15625 478.496094 285.261719 481.089844 285.261719 Z M 115.300781 443.457031 C 112.703125 443.457031 110.601562 445.558594 110.601562 448.15625 C 110.601562 450.75 112.703125 452.859375 115.300781 452.859375 C 117.894531 452.859375 119.996094 450.75 119.996094 448.15625 C 119.996094 445.558594 117.894531 443.457031 115.300781 443.457031 Z M 270.804688 471.074219 C 270.796875 471.40625 271.066406 471.679688 271.398438 471.679688 C 271.398438 471.679688 271.402344 471.679688 271.402344 471.679688 C 271.730469 471.679688 272 471.414062 272.003906 471.082031 C 272.296875 428.175781 275.570312 388.195312 279.027344 357.5 L 277.8125 357.5 C 274.359375 388.214844 271.09375 428.1875 270.804688 471.074219 Z M 305.898438 241.457031 C 312.367188 243.628906 315.484375 235.957031 315.484375 235.957031 L 301.703125 234.589844 C 301.703125 234.589844 303.738281 240.734375 305.898438 241.457031 Z M 375.957031 54.066406 C 379.203125 54.066406 381.832031 51.433594 381.832031 48.183594 C 381.832031 44.9375 379.203125 42.304688 375.957031 42.304688 C 372.707031 42.304688 370.078125 44.9375 370.078125 48.183594 C 370.078125 51.433594 372.707031 54.066406 375.957031 54.066406 Z M 260.921875 106.371094 C 258.046875 106.371094 255.71875 108.707031 255.71875 111.582031 C 255.71875 114.460938 258.046875 116.792969 260.921875 116.792969 C 263.796875 116.792969 266.128906 114.460938 266.128906 111.582031 C 266.128906 108.707031 263.796875 106.371094 260.921875 106.371094 Z M 260.921875 86.992188 C 258.046875 86.992188 255.71875 89.324219 255.71875 92.203125 C 255.71875 95.078125 258.046875 97.414062 260.921875 97.414062 C 263.796875 97.414062 266.128906 95.078125 266.128906 92.203125 C 266.128906 89.324219 263.796875 86.992188 260.921875 86.992188 Z M 260.921875 67.609375 C 258.046875 67.609375 255.71875 69.945312 255.71875 72.820312 C 255.71875 75.695312 258.046875 78.03125 260.921875 78.03125 C 263.796875 78.03125 266.128906 75.695312 266.128906 72.820312 C 266.128906 69.945312 263.796875 67.609375 260.921875 67.609375 Z M 279.855469 116.792969 L 325.738281 116.792969 C 328.609375 116.792969 330.941406 114.460938 330.941406 111.582031 C 330.941406 108.707031 328.609375 106.371094 325.738281 106.371094 L 279.855469 106.371094 C 276.976562 106.371094 274.648438 108.707031 274.648438 111.582031 C 274.648438 114.460938 276.976562 116.792969 279.855469 116.792969 Z M 454.695312 72.820312 C 454.695312 75.695312 452.367188 78.03125 449.492188 78.03125 L 342.132812 78.03125 C 339.261719 78.03125 336.925781 75.695312 336.925781 72.820312 C 336.925781 69.945312 339.261719 67.609375 342.132812 67.609375 L 449.492188 67.609375 C 452.367188 67.609375 454.695312 69.945312 454.695312 72.820312"/></g></svg>